Adinatha-Tamil-Brahmi-2.ufo
<glyph name="AYTHAM" format="2">
  <advance width="1713"/>
  <unicode hex="0B83"/>
  <unicode hex="11002"/>
  <outline>
    <contour>
      <point x="1613" y="1087" type="line"/>
      <point x="1613" y="919" type="line"/>
      <point x="100" y="919" type="line"/>
      <point x="100" y="1087" type="line"/>
    </contour>
    <contour>
      <point x="856" y="1670" type="qcurve" smooth="yes"/>
      <point x="907" y="1670"/>
      <point x="944" y="1633" type="qcurve" smooth="yes"/>
      <point x="981" y="1596"/>
      <point x="981" y="1547" type="qcurve" smooth="yes"/>
      <point x="981" y="1495"/>
      <point x="944" y="1460" type="qcurve"/>
      <point x="907" y="1423"/>
      <point x="856" y="1423" type="qcurve" smooth="yes"/>
      <point x="806" y="1423"/>
      <point x="769" y="1460" type="qcurve" smooth="yes"/>
      <point x="734" y="1495"/>
      <point x="734" y="1547" type="qcurve" smooth="yes"/>
      <point x="734" y="1596"/>
      <point x="769" y="1633" type="qcurve"/>
      <point x="806" y="1670"/>
    </contour>
    <contour>
      <point x="856" y="582" type="qcurve" smooth="yes"/>
      <point x="907" y="582"/>
      <point x="944" y="547" type="qcurve"/>
      <point x="981" y="510"/>
      <point x="981" y="459" type="qcurve" smooth="yes"/>
      <point x="981" y="407"/>
      <point x="944" y="370" type="qcurve"/>
      <point x="907" y="335"/>
      <point x="856" y="335" type="qcurve" smooth="yes"/>
      <point x="806" y="335"/>
      <point x="769" y="370" type="qcurve"/>
      <point x="734" y="407"/>
      <point x="734" y="459" type="qcurve" smooth="yes"/>
      <point x="734" y="510"/>
      <point x="769" y="547" type="qcurve"/>
      <point x="806" y="582"/>
    </contour>
  </outline>
</glyph>
<glyph name="A" format="2">
  <advance width="1295"/>
  <unicode hex="11005"/>
  <outline>
    <contour>
      <point x="929" y="1990" type="line"/>
      <point x="1095" y="1990" type="line"/>
      <point x="1095" y="0" type="line"/>
      <point x="929" y="0" type="line"/>
      <point x="929" y="581" type="line"/>
      <point x="266" y="581" type="line"/>
      <point x="266" y="0" type="line"/>
      <point x="100" y="0" type="line"/>
      <point x="100" y="746" type="line"/>
      <point x="929" y="746" type="line"/>
      <point x="929" y="1244" type="line"/>
      <point x="100" y="1244" type="line"/>
      <point x="100" y="1990" type="line"/>
      <point x="266" y="1990" type="line"/>
      <point x="266" y="1410" type="line"/>
      <point x="929" y="1410" type="line"/>
    </contour>
  </outline>
</glyph>
<glyph name="AA" format="2">
  <advance width="1693"/>
  <unicode hex="11006"/>
  <outline>
    <contour>
      <point x="929" y="1990" type="line"/>
      <point x="1095" y="1990" type="line"/>
      <point x="1095" y="1576" type="line"/>
      <point x="1593" y="1576" type="line"/>
      <point x="1593" y="1410" type="line"/>
      <point x="1095" y="1410" type="line"/>
      <point x="1095" y="0" type="line"/>
      <point x="929" y="0" type="line"/>
      <point x="929" y="581" type="line"/>
      <point x="266" y="581" type="line"/>
      <point x="266" y="0" type="line"/>
      <point x="100" y="0" type="line"/>
      <point x="100" y="746" type="line"/>
      <point x="929" y="746" type="line"/>
      <point x="929" y="1244" type="line"/>
      <point x="100" y="1244" type="line"/>
      <point x="100" y="1990" type="line"/>
      <point x="266" y="1990" type="line"/>
      <point x="266" y="1410" type="line"/>
      <point x="929" y="1410" type="line"/>
    </contour>
  </outline>
</glyph>
<glyph name="I" format="2">
  <advance width="2129"/>
  <unicode hex="11007"/>
  <outline>
    <contour>
      <point x="447" y="1846" type="qcurve" smooth="yes"/>
      <point x="447" y="1795"/>
      <point x="411" y="1759" type="qcurve" smooth="yes"/>
      <point x="375" y="1723"/>
      <point x="324" y="1723" type="qcurve" smooth="yes"/>
      <point x="272" y="1723"/>
      <point x="236" y="1759" type="qcurve" smooth="yes"/>
      <point x="200" y="1795"/>
      <point x="200" y="1846" type="qcurve" smooth="yes"/>
      <point x="200" y="1897"/>
      <point x="236" y="1933" type="qcurve" smooth="yes"/>
      <point x="272" y="1970"/>
      <point x="324" y="1970" type="qcurve" smooth="yes"/>
      <point x="375" y="1970"/>
      <point x="411" y="1933" type="qcurve" smooth="yes"/>
      <point x="447" y="1897"/>
    </contour>
    <contour>
      <point x="451" y="123" type="qcurve" smooth="yes"/>
      <point x="451" y="72"/>
      <point x="415" y="36" type="qcurve" smooth="yes"/>
      <point x="379" y="0"/>
      <point x="328" y="0" type="qcurve" smooth="yes"/>
      <point x="277" y="0"/>
      <point x="240" y="36" type="qcurve" smooth="yes"/>
      <point x="204" y="72"/>
      <point x="204" y="123" type="qcurve" smooth="yes"/>
      <point x="204" y="175"/>
      <point x="240" y="211" type="qcurve" smooth="yes"/>
      <point x="277" y="247"/>
      <point x="328" y="247" type="qcurve" smooth="yes"/>
      <point x="379" y="247"/>
      <point x="415" y="211" type="qcurve" smooth="yes"/>
      <point x="451" y="175"/>
    </contour>
    <contour>
      <point x="1929" y="990" type="qcurve" smooth="yes"/>
      <point x="1929" y="939"/>
      <point x="1893" y="903" type="qcurve" smooth="yes"/>
      <point x="1857" y="867"/>
      <point x="1806" y="867" type="qcurve" smooth="yes"/>
      <point x="1755" y="867"/>
      <point x="1718" y="903" type="qcurve" smooth="yes"/>
      <point x="1682" y="939"/>
      <point x="1682" y="990" type="qcurve" smooth="yes"/>
      <point x="1682" y="1042"/>
      <point x="1718" y="1078" type="qcurve" smooth="yes"/>
      <point x="1755" y="1114"/>
      <point x="1806" y="1114" type="qcurve" smooth="yes"/>
      <point x="1857" y="1114"/>
      <point x="1893" y="1078" type="qcurve" smooth="yes"/>
      <point x="1929" y="1042"/>
    </contour>
  </outline>
</glyph>
<glyph name="II" format="2">
  <advance width="1855"/>
  <unicode hex="11008"/>
  <outline>
    <contour>
      <point x="844" y="1990" type="line"/>
      <point x="1010" y="1990" type="line"/>
      <point x="1010" y="0" type="line"/>
      <point x="844" y="0" type="line"/>
    </contour>
    <contour>
      <point x="1755" y="995" type="qcurve" smooth="yes"/>
      <point x="1755" y="944"/>
      <point x="1718" y="909" type="qcurve"/>
      <point x="1682" y="872"/>
      <point x="1632" y="872" type="qcurve" smooth="yes"/>
      <point x="1581" y="872"/>
      <point x="1544" y="909" type="qcurve" smooth="yes"/>
      <point x="1508" y="944"/>
      <point x="1508" y="995" type="qcurve" smooth="yes"/>
      <point x="1508" y="1047"/>
      <point x="1544" y="1083" type="qcurve" smooth="yes"/>
      <point x="1581" y="1119"/>
      <point x="1632" y="1119" type="qcurve" smooth="yes"/>
      <point x="1682" y="1119"/>
      <point x="1718" y="1083" type="qcurve" smooth="yes"/>
      <point x="1755" y="1047"/>
    </contour>
    <contour>
      <point x="347" y="995" type="qcurve" smooth="yes"/>
      <point x="347" y="944"/>
      <point x="311" y="909" type="qcurve" smooth="yes"/>
      <point x="274" y="872"/>
      <point x="224" y="872" type="qcurve" smooth="yes"/>
      <point x="173" y="872"/>
      <point x="136" y="909" type="qcurve" smooth="yes"/>
      <point x="100" y="944"/>
      <point x="100" y="995" type="qcurve" smooth="yes"/>
      <point x="100" y="1047"/>
      <point x="136" y="1083" type="qcurve" smooth="yes"/>
      <point x="173" y="1119"/>
      <point x="224" y="1119" type="qcurve" smooth="yes"/>
      <point x="274" y="1119"/>
      <point x="311" y="1083" type="qcurve" smooth="yes"/>
      <point x="347" y="1047"/>
    </contour>
  </outline>
</glyph>
<glyph name="U" format="2">
  <advance width="1129"/>
  <unicode hex="11009"/>
  <outline>
    <contour>
      <point x="200" y="1990" type="line"/>
      <point x="366" y="1990" type="line"/>
      <point x="366" y="166" type="line"/>
      <point x="1029" y="166" type="line"/>
      <point x="1029" y="0" type="line"/>
      <point x="200" y="0" type="line"/>
    </contour>
  </outline>
</glyph>
<glyph name="UU" format="2">
  <advance width="1129"/>
  <unicode hex="1100A"/>
  <outline>
    <contour>
      <point x="200" y="1990" type="line"/>
      <point x="366" y="1990" type="line"/>
      <point x="366" y="498" type="line"/>
      <point x="1029" y="498" type="line"/>
      <point x="1029" y="332" type="line"/>
      <point x="366" y="332" type="line"/>
      <point x="366" y="166" type="line"/>
      <point x="1029" y="166" type="line"/>
      <point x="1029" y="0" type="line"/>
      <point x="200" y="0" type="line"/>
    </contour>
  </outline>
</glyph>
<glyph name="EE" format="2">
  <advance width="1461"/>
  <unicode hex="1100F"/>
  <anchor x="1361" y="995" name="pulli"/>
  <anchor x="657" y="998" name="pulli_inside"/>
  <anchor x="200" y="995" name="pulli_left"/>
  <anchor x="689" y="1990" name="pulli_top"/>
  <outline>
    <contour>
      <point x="366" y="0" type="line"/>
      <point x="1361" y="995" type="line"/>
      <point x="366" y="1990" type="line"/>
      <point x="200" y="1990" type="line"/>
      <point x="200" y="0" type="line"/>
    </contour>
    <contour>
      <point x="1125" y="997" type="line"/>
      <point x="366" y="236" type="line"/>
      <point x="366" y="1758" type="line"/>
    </contour>
  </outline>
</glyph>
<glyph name="AI" format="2">
  <advance width="1859"/>
  <unicode hex="11010"/>
  <outline>
    <contour>
      <point x="598" y="1825" type="line"/>
      <point x="100" y="1825" type="line"/>
      <point x="100" y="1990" type="line"/>
      <point x="763" y="1990" type="line"/>
      <point x="1759" y="995" type="line"/>
      <point x="763" y="0" type="line"/>
      <point x="598" y="0" type="line"/>
    </contour>
    <contour>
      <point x="763" y="1758" type="line"/>
      <point x="763" y="236" type="line"/>
      <point x="1523" y="997" type="line"/>
    </contour>
  </outline>
</glyph>
<glyph name="OO" format="2">
  <advance width="1693"/>
  <unicode hex="11011"/>
  <anchor x="929" y="1550" name="pulli"/>
  <anchor x="482" y="1991" name="pulli_top"/>
  <outline>
    <contour>
      <point x="763" y="0" type="line"/>
      <point x="763" y="1825" type="line"/>
      <point x="100" y="1825" type="line"/>
      <point x="100" y="1990" type="line"/>
      <point x="929" y="1990" type="line"/>
      <point x="929" y="166" type="line"/>
      <point x="1593" y="166" type="line"/>
      <point x="1593" y="0" type="line"/>
    </contour>
  </outline>
</glyph>
<glyph name="AU" format="2">
  <advance width="1693"/>
  <unicode hex="11012"/>
  <outline>
    <contour>
      <point x="929" y="0" type="line"/>
      <point x="763" y="0" type="line"/>
      <point x="763" y="1825" type="line"/>
      <point x="100" y="1825" type="line"/>
      <point x="100" y="1990" type="line"/>
      <point x="929" y="1990" type="line"/>
      <point x="929" y="498" type="line"/>
      <point x="1593" y="498" type="line"/>
      <point x="1593" y="332" type="line"/>
      <point x="929" y="332" type="line"/>
    </contour>
    <contour>
      <point x="1593" y="0" type="line"/>
      <point x="929" y="0" type="line"/>
      <point x="929" y="166" type="line"/>
      <point x="1593" y="166" type="line"/>
    </contour>
  </outline>
</glyph>
<glyph name="KA" format="2">
  <advance width="1693"/>
  <unicode hex="11013"/>
  <anchor x="929" y="0" name="bottom"/>
  <anchor x="929" y="1574" name="middle_right"/>
  <anchor x="929" y="1574" name="pulli"/>
  <anchor x="854" y="1991" name="pulli_top"/>
  <anchor x="929" y="1991" name="top"/>
  <anchor x="764" y="1991" name="top_left"/>
  <anchor x="929" y="1574" name="top_mid"/>
  <outline>
    <contour>
      <point x="764" y="1991" type="line"/>
      <point x="929" y="1991" type="line"/>
      <point x="929" y="1079" type="line"/>
      <point x="1593" y="1079" type="line"/>
      <point x="1593" y="913" type="line"/>
      <point x="929" y="913" type="line"/>
      <point x="929" y="0" type="line"/>
      <point x="764" y="0" type="line"/>
      <point x="764" y="913" type="line"/>
      <point x="100" y="913" type="line"/>
      <point x="100" y="1079" type="line"/>
      <point x="764" y="1079" type="line"/>
    </contour>
  </outline>
  <guideline angle="0" x="0" y="3201"/>
  <guideline angle="0" x="0" y="1824"/>
</glyph>
<glyph name="CA" format="2">
  <advance width="1295"/>
  <unicode hex="11018"/>
  <anchor x="684" y="0" name="bottom"/>
  <anchor x="1095" y="0" name="bottom.1"/>
  <anchor x="1095" y="1574" name="middle_right"/>
  <anchor x="1095" y="1574" name="pulli"/>
  <anchor x="1018" y="1991" name="pulli_top"/>
  <anchor x="1095" y="1991" name="top"/>
  <anchor x="929" y="1991" name="top_left"/>
  <outline>
    <contour>
      <point x="929" y="1991" type="line"/>
      <point x="1095" y="1991" type="line"/>
      <point x="1095" y="165" type="line" smooth="yes"/>
      <point x="1095" y="97"/>
      <point x="1047" y="49" type="qcurve" smooth="yes"/>
      <point x="998" y="0"/>
      <point x="931" y="0" type="qcurve" smooth="yes"/>
      <point x="598" y="0" type="line" smooth="yes"/>
      <point x="392" y="0"/>
      <point x="247" y="147" type="qcurve"/>
      <point x="100" y="292"/>
      <point x="100" y="498" type="qcurve" smooth="yes"/>
      <point x="100" y="581" type="line" smooth="yes"/>
      <point x="100" y="787"/>
      <point x="247" y="932" type="qcurve"/>
      <point x="392" y="1079"/>
      <point x="598" y="1079" type="qcurve" smooth="yes"/>
      <point x="929" y="1079" type="line"/>
    </contour>
    <contour>
      <point x="929" y="898" type="line"/>
      <point x="598" y="898" type="line" smooth="yes"/>
      <point x="461" y="898"/>
      <point x="363" y="801" type="qcurve" smooth="yes"/>
      <point x="266" y="704"/>
      <point x="266" y="568" type="qcurve" smooth="yes"/>
      <point x="266" y="512" type="line" smooth="yes"/>
      <point x="266" y="375"/>
      <point x="363" y="278" type="qcurve" smooth="yes"/>
      <point x="461" y="181"/>
      <point x="598" y="181" type="qcurve" smooth="yes"/>
      <point x="820" y="181" type="line" smooth="yes"/>
      <point x="865" y="181"/>
      <point x="897" y="212" type="qcurve"/>
      <point x="929" y="245"/>
      <point x="929" y="290" type="qcurve" smooth="yes"/>
    </contour>
  </outline>
</glyph>
<glyph name="NYA" format="2">
  <advance width="1793"/>
  <unicode hex="1101C"/>
  <anchor x="1693" y="0" name="bottom"/>
  <anchor x="864" y="1574" name="pulli"/>
  <anchor x="1207" y="1991" name="pulli_top"/>
  <anchor x="864" y="1667" name="top"/>
  <anchor x="698" y="1667" name="top_left"/>
  <outline>
    <contour>
      <point x="864" y="1991" type="line"/>
      <point x="864" y="1079" type="line"/>
      <point x="1693" y="1079" type="line"/>
      <point x="1693" y="0" type="line"/>
      <point x="1527" y="0" type="line"/>
      <point x="1527" y="913" type="line"/>
      <point x="864" y="913" type="line"/>
      <point x="864" y="0" type="line"/>
      <point x="698" y="0" type="line"/>
      <point x="698" y="1825" type="line"/>
      <point x="200" y="1825" type="line"/>
      <point x="200" y="1991" type="line"/>
    </contour>
  </outline>
</glyph>
<glyph name="TTA" format="2">
  <advance width="1527"/>
  <unicode hex="1101D"/>
  <anchor x="1427" y="0" name="bottom"/>
  <anchor x="100" y="998" name="middle_left"/>
  <anchor x="266" y="998" name="middle_right"/>
  <anchor x="606" y="998" name="pulli"/>
  <anchor x="1012" y="1991" name="pulli_top"/>
  <anchor x="1427" y="1991" name="top"/>
  <outline>
    <contour>
      <point x="1427" y="166" type="line"/>
      <point x="1427" y="0" type="line"/>
      <point x="1036" y="0" type="line" smooth="yes"/>
      <point x="853" y="0"/>
      <point x="713" y="34" type="qcurve" smooth="yes"/>
      <point x="573" y="68"/>
      <point x="474" y="134" type="qcurve" smooth="yes"/>
      <point x="375" y="199"/>
      <point x="291" y="315" type="qcurve"/>
      <point x="207" y="428"/>
      <point x="154" y="605" type="qcurve"/>
      <point x="100" y="779"/>
      <point x="100" y="1007" type="qcurve" smooth="yes"/>
      <point x="100" y="1273"/>
      <point x="179" y="1479" type="qcurve" smooth="yes"/>
      <point x="257" y="1685"/>
      <point x="416" y="1819" type="qcurve" smooth="yes"/>
      <point x="539" y="1923"/>
      <point x="711" y="1962" type="qcurve" smooth="yes"/>
      <point x="837" y="1991"/>
      <point x="1068" y="1991" type="qcurve" smooth="yes"/>
      <point x="1427" y="1991" type="line"/>
      <point x="1427" y="1825" type="line"/>
      <point x="1012" y="1825" type="line" smooth="yes"/>
      <point x="836" y="1825"/>
      <point x="741" y="1802" type="qcurve" smooth="yes"/>
      <point x="608" y="1769"/>
      <point x="512" y="1684" type="qcurve"/>
      <point x="389" y="1572"/>
      <point x="328" y="1402" type="qcurve" smooth="yes"/>
      <point x="266" y="1228"/>
      <point x="266" y="1010" type="qcurve" smooth="yes"/>
      <point x="266" y="824"/>
      <point x="309" y="676" type="qcurve"/>
      <point x="349" y="530"/>
      <point x="415" y="436" type="qcurve"/>
      <point x="480" y="340"/>
      <point x="557" y="286" type="qcurve" smooth="yes"/>
      <point x="634" y="231"/>
      <point x="743" y="203" type="qcurve" smooth="yes"/>
      <point x="884" y="166"/>
      <point x="994" y="166" type="qcurve" smooth="yes"/>
    </contour>
  </outline>
</glyph>
<glyph name="DHA" format="2">
  <advance width="1627"/>
  <unicode hex="11025"/>
  <anchor x="781" y="0" name="bottom"/>
  <anchor x="1406" y="1574" name="pulli"/>
  <anchor x="365" y="1465" name="pulli.left"/>
  <anchor x="788" y="1991" name="pulli_top"/>
  <anchor x="1210" y="1819" name="top"/>
  <anchor x="200" y="1991" name="top_left"/>
  <outline>
    <contour>
      <point x="558" y="1991" type="line" smooth="yes"/>
      <point x="790" y="1991"/>
      <point x="915" y="1962" type="qcurve" smooth="yes"/>
      <point x="1088" y="1923"/>
      <point x="1210" y="1819" type="qcurve"/>
      <point x="1370" y="1685"/>
      <point x="1448" y="1479" type="qcurve" smooth="yes"/>
      <point x="1527" y="1273"/>
      <point x="1527" y="1007" type="qcurve" smooth="yes"/>
      <point x="1527" y="779"/>
      <point x="1473" y="605" type="qcurve" smooth="yes"/>
      <point x="1419" y="428"/>
      <point x="1336" y="315" type="qcurve" smooth="yes"/>
      <point x="1252" y="199"/>
      <point x="1154" y="134" type="qcurve" smooth="yes"/>
      <point x="1054" y="68"/>
      <point x="914" y="34" type="qcurve" smooth="yes"/>
      <point x="774" y="0"/>
      <point x="592" y="0" type="qcurve" smooth="yes"/>
      <point x="200" y="0" type="line"/>
      <point x="200" y="1991" type="line"/>
    </contour>
    <contour>
      <point x="366" y="175" type="line"/>
      <point x="633" y="175" type="line" smooth="yes"/>
      <point x="776" y="175"/>
      <point x="884" y="203" type="qcurve" smooth="yes"/>
      <point x="993" y="231"/>
      <point x="1070" y="286" type="qcurve" smooth="yes"/>
      <point x="1147" y="340"/>
      <point x="1212" y="436" type="qcurve"/>
      <point x="1277" y="529"/>
      <point x="1318" y="676" type="qcurve"/>
      <point x="1360" y="820"/>
      <point x="1360" y="1009" type="qcurve" smooth="yes"/>
      <point x="1360" y="1230"/>
      <point x="1299" y="1402" type="qcurve" smooth="yes"/>
      <point x="1238" y="1572"/>
      <point x="1114" y="1684" type="qcurve" smooth="yes"/>
      <point x="1019" y="1769"/>
      <point x="886" y="1802" type="qcurve" smooth="yes"/>
      <point x="788" y="1826"/>
      <point x="607" y="1826" type="qcurve" smooth="yes"/>
      <point x="366" y="1826" type="line"/>
    </contour>
  </outline>
</glyph>
<glyph name="NA" format="2">
  <advance width="1693"/>
  <unicode hex="11026"/>
  <anchor x="1593" y="0" name="bottom"/>
  <anchor x="929" y="1574" name="pulli"/>
  <anchor x="854" y="1991" name="pulli_top"/>
  <anchor x="929" y="1991" name="top"/>
  <anchor x="764" y="1991" name="top_left"/>
  <outline>
    <contour>
      <point x="764" y="1991" type="line"/>
      <point x="929" y="1991" type="line"/>
      <point x="929" y="166" type="line"/>
      <point x="1593" y="166" type="line"/>
      <point x="1593" y="0" type="line"/>
      <point x="100" y="0" type="line"/>
      <point x="100" y="166" type="line"/>
      <point x="764" y="166" type="line"/>
    </contour>
  </outline>
</glyph>
<glyph name="MA" format="2">
  <advance width="1561"/>
  <unicode hex="1102B"/>
  <anchor x="781" y="9" name="bottom"/>
  <anchor x="1361" y="1079" name="mid_mid"/>
  <anchor x="1361" y="1574" name="middle_right"/>
  <anchor x="1361" y="1574" name="pulli"/>
  <anchor x="364" y="1555" name="pulli.left"/>
  <anchor x="791" y="1991" name="pulli_top"/>
  <anchor x="1361" y="1991" name="top"/>
  <anchor x="200" y="1991" name="top_left"/>
  <outline>
    <contour>
      <point x="366" y="1079" type="line"/>
      <point x="1195" y="1079" type="line"/>
      <point x="1195" y="1991" type="line"/>
      <point x="1361" y="1991" type="line"/>
      <point x="1361" y="415" type="line" smooth="yes"/>
      <point x="1361" y="266"/>
      <point x="1266" y="151" type="qcurve" smooth="yes"/>
      <point x="1172" y="38"/>
      <point x="1029" y="9" type="qcurve"/>
      <point x="1029" y="0" type="line"/>
      <point x="614" y="0" type="line" smooth="yes"/>
      <point x="444" y="0"/>
      <point x="322" y="122" type="qcurve" smooth="yes"/>
      <point x="200" y="244"/>
      <point x="200" y="415" type="qcurve" smooth="yes"/>
      <point x="200" y="1991" type="line"/>
      <point x="366" y="1991" type="line"/>
    </contour>
    <contour>
      <point x="366" y="913" type="line"/>
      <point x="366" y="454" type="line" smooth="yes"/>
      <point x="366" y="335"/>
      <point x="447" y="251" type="qcurve" smooth="yes"/>
      <point x="528" y="166"/>
      <point x="642" y="166" type="qcurve" smooth="yes"/>
      <point x="919" y="166" type="line" smooth="yes"/>
      <point x="1033" y="166"/>
      <point x="1114" y="251" type="qcurve" smooth="yes"/>
      <point x="1195" y="335"/>
      <point x="1195" y="454" type="qcurve" smooth="yes"/>
      <point x="1195" y="913" type="line"/>
    </contour>
  </outline>
</glyph>
<glyph name="RA" format="2">
  <advance width="566"/>
  <unicode hex="1102D"/>
  <anchor x="366" y="162" name="bottom"/>
  <anchor x="366" y="1574" name="middle_right"/>
  <anchor x="366" y="1574" name="pulli"/>
  <anchor x="297" y="1991" name="pulli_top"/>
  <anchor x="366" y="1991" name="top"/>
  <anchor x="200" y="1822" name="top_left"/>
  <outline>
    <contour>
      <point x="200" y="1991" type="line"/>
      <point x="366" y="1991" type="line"/>
      <point x="366" y="0" type="line"/>
      <point x="200" y="0" type="line"/>
    </contour>
  </outline>
  <guideline angle="0" x="0" y="1822"/>
  <guideline angle="0" x="0" y="162"/>
</glyph>
<glyph name="VA" format="2">
  <advance width="1195"/>
  <unicode hex="1102F"/>
  <anchor x="598" y="0" name="bottom"/>
  <anchor x="680" y="1574" name="middle_right"/>
  <anchor x="680" y="1574" name="pulli"/>
  <anchor x="598" y="1991" name="pulli_top"/>
  <anchor x="680" y="1991" name="top"/>
  <anchor x="514" y="1991" name="top_left"/>
  <outline>
    <contour>
      <point x="514" y="1991" type="line"/>
      <point x="680" y="1991" type="line"/>
      <point x="680" y="989" type="line"/>
      <point x="858" y="958"/>
      <point x="976" y="820" type="qcurve" smooth="yes"/>
      <point x="1095" y="680"/>
      <point x="1095" y="498" type="qcurve" smooth="yes"/>
      <point x="1095" y="292"/>
      <point x="949" y="147" type="qcurve" smooth="yes"/>
      <point x="803" y="0"/>
      <point x="598" y="0" type="qcurve" smooth="yes"/>
      <point x="392" y="0"/>
      <point x="246" y="147" type="qcurve" smooth="yes"/>
      <point x="100" y="292"/>
      <point x="100" y="498" type="qcurve" smooth="yes"/>
      <point x="100" y="680"/>
      <point x="220" y="820" type="qcurve" smooth="yes"/>
      <point x="337" y="958"/>
      <point x="514" y="989" type="qcurve"/>
    </contour>
    <contour>
      <point x="598" y="166" type="qcurve" smooth="yes"/>
      <point x="734" y="166"/>
      <point x="832" y="264" type="qcurve" smooth="yes"/>
      <point x="929" y="361"/>
      <point x="929" y="498" type="qcurve" smooth="yes"/>
      <point x="929" y="635"/>
      <point x="832" y="732" type="qcurve" smooth="yes"/>
      <point x="734" y="829"/>
      <point x="598" y="829" type="qcurve" smooth="yes"/>
      <point x="460" y="829"/>
      <point x="363" y="732" type="qcurve" smooth="yes"/>
      <point x="266" y="635"/>
      <point x="266" y="498" type="qcurve" smooth="yes"/>
      <point x="266" y="361"/>
      <point x="363" y="264" type="qcurve" smooth="yes"/>
      <point x="460" y="166"/>
    </contour>
  </outline>
</glyph>
<glyph name="SHA" format="2">
  <advance width="1693"/>
  <unicode hex="11030"/>
  <anchor x="1593" y="0" name="bottom"/>
  <anchor x="1068" y="1574" name="pulli"/>
  <anchor x="854" y="1991" name="pulli_top"/>
  <anchor x="929" y="1991" name="top"/>
  <anchor x="764" y="1991" name="top_left"/>
  <outline>
    <contour>
      <point x="929" y="0" type="line"/>
      <point x="764" y="0" type="line"/>
      <point x="764" y="1493" type="line"/>
      <point x="266" y="0" type="line"/>
      <point x="100" y="0" type="line"/>
      <point x="764" y="1991" type="line"/>
      <point x="929" y="1991" type="line"/>
      <point x="1593" y="0" type="line"/>
      <point x="1427" y="0" type="line"/>
      <point x="929" y="1493" type="line"/>
    </contour>
  </outline>
</glyph>
<glyph name="SA" format="2">
  <advance width="1959"/>
  <unicode hex="11032"/>
  <anchor x="1351" y="0" name="bottom"/>
  <anchor x="1028" y="1574" name="middle_right"/>
  <anchor x="1029" y="1574" name="pulli"/>
  <anchor x="954" y="1991" name="pulli_top"/>
  <anchor x="1029" y="1991" name="top"/>
  <anchor x="864" y="1991" name="top_left"/>
  <outline>
    <contour>
      <point x="1029" y="454" type="line" smooth="yes"/>
      <point x="1029" y="335"/>
      <point x="1111" y="251" type="qcurve" smooth="yes"/>
      <point x="1192" y="166"/>
      <point x="1306" y="166" type="qcurve" smooth="yes"/>
      <point x="1417" y="166" type="line" smooth="yes"/>
      <point x="1531" y="166"/>
      <point x="1612" y="251" type="qcurve" smooth="yes"/>
      <point x="1693" y="335"/>
      <point x="1693" y="454" type="qcurve" smooth="yes"/>
      <point x="1693" y="913" type="line"/>
      <point x="1859" y="913" type="line"/>
      <point x="1859" y="415" type="line" smooth="yes"/>
      <point x="1859" y="244"/>
      <point x="1737" y="122" type="qcurve" smooth="yes"/>
      <point x="1615" y="0"/>
      <point x="1444" y="0" type="qcurve" smooth="yes"/>
      <point x="1278" y="0" type="line" smooth="yes"/>
      <point x="1107" y="0"/>
      <point x="985" y="122" type="qcurve" smooth="yes"/>
      <point x="864" y="244"/>
      <point x="864" y="415" type="qcurve" smooth="yes"/>
      <point x="864" y="747" type="line"/>
      <point x="366" y="747" type="line"/>
      <point x="366" y="0" type="line"/>
      <point x="200" y="0" type="line"/>
      <point x="200" y="913" type="line"/>
      <point x="864" y="913" type="line"/>
      <point x="864" y="1991" type="line"/>
      <point x="1029" y="1991" type="line"/>
    </contour>
  </outline>
</glyph>
<glyph name="NNNA" format="2">
  <advance width="1793"/>
  <unicode hex="11037"/>
  <anchor x="1593" y="0" name="bottom"/>
  <anchor x="675" y="1577" name="middle_left"/>
  <anchor x="1593" y="1163" name="middle_right"/>
  <anchor x="1593" y="1323" name="middle_right.1"/>
  <anchor x="1593" y="1577" name="pulli"/>
  <anchor x="848" y="1574" name="pulli.left"/>
  <anchor x="1122" y="1991" name="pulli_top"/>
  <anchor x="1122" y="1991" name="top"/>
  <anchor x="594" y="1990" name="top_left"/>
  <outline>
    <contour>
      <point x="100" y="0" type="line"/>
      <point x="100" y="166" type="line"/>
      <point x="680" y="166" type="line"/>
      <point x="680" y="1577" type="line" smooth="yes"/>
      <point x="680" y="1747"/>
      <point x="802" y="1869" type="qcurve" smooth="yes"/>
      <point x="924" y="1991"/>
      <point x="1095" y="1991" type="qcurve" smooth="yes"/>
      <point x="1178" y="1991" type="line" smooth="yes"/>
      <point x="1349" y="1991"/>
      <point x="1471" y="1869" type="qcurve" smooth="yes"/>
      <point x="1593" y="1747"/>
      <point x="1593" y="1577" type="qcurve" smooth="yes"/>
      <point x="1593" y="1079" type="line"/>
      <point x="1427" y="1079" type="line"/>
      <point x="1427" y="1538" type="line" smooth="yes"/>
      <point x="1427" y="1657"/>
      <point x="1346" y="1740" type="qcurve" smooth="yes"/>
      <point x="1265" y="1825"/>
      <point x="1151" y="1825" type="qcurve" smooth="yes"/>
      <point x="1122" y="1825" type="line" smooth="yes"/>
      <point x="1008" y="1825"/>
      <point x="927" y="1740" type="qcurve" smooth="yes"/>
      <point x="846" y="1657"/>
      <point x="846" y="1538" type="qcurve" smooth="yes"/>
      <point x="846" y="166" type="line"/>
      <point x="1593" y="166" type="line"/>
      <point x="1593" y="0" type="line"/>
    </contour>
  </outline>
</glyph>
<glyph name="WAA" format="2">
  <unicode hex="11038"/>
  <anchor x="100" y="1990" name="_top"/>
  <outline>
    <contour>
      <point x="90" y="1990" type="line"/>
      <point x="594" y="1990" type="line"/>
      <point x="594" y="1825" type="line"/>
      <point x="90" y="1825" type="line"/>
    </contour>
  </outline>
</glyph>
<glyph name="WI" format="2">
  <unicode hex="1103A"/>
  <anchor x="100" y="1720" name="_top"/>
  <outline>
    <contour>
      <point x="90" y="1720" type="line"/>
      <point x="386" y="1720" type="line"/>
      <point x="386" y="2225" type="line"/>
      <point x="530" y="2225" type="line"/>
      <point x="530" y="1558" type="line"/>
      <point x="90" y="1558" type="line"/>
    </contour>
  </outline>
</glyph>
<glyph name="WII" format="2">
  <unicode hex="1103B"/>
  <anchor x="100" y="1720" name="_top"/>
  <outline>
    <contour>
      <point x="90" y="1720" type="line"/>
      <point x="243" y="1720" type="line"/>
      <point x="243" y="2218" type="line"/>
      <point x="386" y="2218" type="line"/>
      <point x="386" y="1720" type="line"/>
      <point x="530" y="1720" type="line"/>
      <point x="530" y="2218" type="line"/>
      <point x="673" y="2218" type="line"/>
      <point x="673" y="1556" type="line"/>
      <point x="90" y="1556" type="line"/>
    </contour>
  </outline>
</glyph>
<glyph name="WU" format="2">
  <unicode hex="1103C"/>
  <anchor x="100" y="0" name="_bottom"/>
  <outline>
    <contour>
      <point x="90" y="0" type="line"/>
      <point x="594" y="0" type="line"/>
      <point x="594" y="166" type="line"/>
      <point x="90" y="166" type="line"/>
    </contour>
  </outline>
</glyph>
<glyph name="WUU" format="2">
  <unicode hex="1103D"/>
  <anchor x="100" y="0" name="_bottom"/>
  <outline>
    <contour>
      <point x="83" y="332" type="line"/>
      <point x="591" y="332" type="line"/>
      <point x="591" y="498" type="line"/>
      <point x="83" y="498" type="line"/>
    </contour>
    <contour>
      <point x="80" y="0" type="line"/>
      <point x="591" y="0" type="line"/>
      <point x="591" y="166" type="line"/>
      <point x="80" y="166" type="line"/>
    </contour>
  </outline>
</glyph>
<glyph name="WEE" format="2">
  <unicode hex="11042"/>
  <anchor x="591" y="1990" name="_top_left"/>
  <outline>
    <contour>
      <point x="601" y="1990" type="line"/>
      <point x="100" y="1990" type="line"/>
      <point x="100" y="1825" type="line"/>
      <point x="601" y="1825" type="line"/>
    </contour>
  </outline>
</glyph>
<glyph name="WAI" format="2">
  <unicode hex="11043"/>
  <anchor x="591" y="1990" name="_top_left"/>
  <outline>
    <contour>
      <point x="601" y="1990" type="line"/>
      <point x="100" y="1990" type="line"/>
      <point x="100" y="1825" type="line"/>
      <point x="601" y="1825" type="line"/>
    </contour>
    <contour>
      <point x="601" y="1659" type="line"/>
      <point x="100" y="1659" type="line"/>
      <point x="100" y="1493" type="line"/>
      <point x="601" y="1493" type="line"/>
    </contour>
  </outline>
</glyph>
<glyph name="WOO" format="2">
  <unicode hex="11044"/>
  <anchor x="770" y="1990" name="_top"/>
  <outline>
    <contour>
      <point x="624" y="1493" type="line"/>
      <point x="123" y="1493" type="line"/>
      <point x="123" y="1659" type="line"/>
      <point x="624" y="1659" type="line"/>
    </contour>
    <contour>
      <point x="760" y="1990" type="line"/>
      <point x="1261" y="1990" type="line"/>
      <point x="1261" y="1824" type="line"/>
      <point x="760" y="1824" type="line"/>
    </contour>
  </outline>
</glyph>
<glyph name="WAU" format="2">
  <unicode hex="11045"/>
  <anchor x="594" y="1990" name="_top_left"/>
  <outline>
    <contour>
      <point x="604" y="1493" type="line"/>
      <point x="100" y="1493" type="line"/>
      <point x="100" y="1659" type="line"/>
      <point x="604" y="1659" type="line"/>
    </contour>
    <contour>
      <point x="750" y="1825" type="line"/>
      <point x="1251" y="1825" type="line"/>
      <point x="1251" y="1659" type="line"/>
      <point x="750" y="1659" type="line"/>
    </contour>
    <contour>
      <point x="604" y="1825" type="line"/>
      <point x="100" y="1825" type="line"/>
      <point x="100" y="1990" type="line"/>
      <point x="604" y="1990" type="line"/>
    </contour>
  </outline>
</glyph>
<glyph name="PULLI" format="2">
  <unicode hex="11070"/>
  <anchor x="52" y="1151" name="_pulli"/>
  <outline>
    <contour>
      <point x="502" y="1151" type="qcurve" smooth="yes"/>
      <point x="502" y="1099"/>
      <point x="466" y="1063" type="qcurve"/>
      <point x="429" y="1028"/>
      <point x="379" y="1028" type="qcurve" smooth="yes"/>
      <point x="328" y="1028"/>
      <point x="291" y="1063" type="qcurve"/>
      <point x="255" y="1099"/>
      <point x="255" y="1151" type="qcurve" smooth="yes"/>
      <point x="255" y="1201"/>
      <point x="291" y="1237" type="qcurve" smooth="yes"/>
      <point x="329" y="1275"/>
      <point x="379" y="1275" type="qcurve" smooth="yes"/>
      <point x="429" y="1275"/>
      <point x="466" y="1237" type="qcurve"/>
      <point x="502" y="1202"/>
    </contour>
  </outline>
  <guideline angle="0" x="0" y="1151"/>
</glyph>
<glyph name="E" format="2">
  <advance width="1461"/>
  <unicode hex="11071"/>
  <outline>
    <contour>
      <point x="366" y="0" type="line"/>
      <point x="1361" y="995" type="line"/>
      <point x="366" y="1990" type="line"/>
      <point x="200" y="1990" type="line"/>
      <point x="200" y="0" type="line"/>
    </contour>
    <contour>
      <point x="1125" y="997" type="line"/>
      <point x="366" y="236" type="line"/>
      <point x="366" y="1758" type="line"/>
    </contour>
    <contour>
      <point x="822" y="996" type="qcurve" smooth="yes"/>
      <point x="822" y="944"/>
      <point x="784" y="908" type="qcurve" smooth="yes"/>
      <point x="749" y="873"/>
      <point x="698" y="873" type="qcurve" smooth="yes"/>
      <point x="646" y="873"/>
      <point x="610" y="908" type="qcurve"/>
      <point x="575" y="944"/>
      <point x="575" y="996" type="qcurve" smooth="yes"/>
      <point x="575" y="1047"/>
      <point x="610" y="1082" type="qcurve"/>
      <point x="646" y="1120"/>
      <point x="698" y="1120" type="qcurve" smooth="yes"/>
      <point x="749" y="1120"/>
      <point x="784" y="1082" type="qcurve"/>
      <point x="822" y="1047"/>
    </contour>
  </outline>
</glyph>
<glyph name="O" format="2">
  <advance width="2073"/>
  <unicode hex="11072"/>
  <outline>
    <contour>
      <point x="1143" y="0" type="line"/>
      <point x="1143" y="1824" type="line"/>
      <point x="480" y="1824" type="line"/>
      <point x="480" y="1990" type="line"/>
      <point x="1309" y="1990" type="line"/>
      <point x="1309" y="166" type="line"/>
      <point x="1973" y="166" type="line"/>
      <point x="1973" y="0" type="line"/>
    </contour>
    <contour>
      <point x="347" y="1907" type="qcurve" smooth="yes"/>
      <point x="347" y="1856"/>
      <point x="311" y="1820" type="qcurve" smooth="yes"/>
      <point x="274" y="1784"/>
      <point x="224" y="1784" type="qcurve" smooth="yes"/>
      <point x="173" y="1784"/>
      <point x="136" y="1820" type="qcurve" smooth="yes"/>
      <point x="100" y="1856"/>
      <point x="100" y="1907" type="qcurve" smooth="yes"/>
      <point x="100" y="1959"/>
      <point x="136" y="1995" type="qcurve" smooth="yes"/>
      <point x="173" y="2031"/>
      <point x="224" y="2031" type="qcurve" smooth="yes"/>
      <point x="274" y="2031"/>
      <point x="311" y="1995" type="qcurve" smooth="yes"/>
      <point x="347" y="1959"/>
    </contour>
  </outline>
</glyph>
<glyph name="WE" format="2">
  <unicode hex="11073"/>
  <anchor x="928" y="1990" name="_top_left"/>
  <outline>
    <contour>
      <point x="938" y="1990" type="line"/>
      <point x="431" y="1990" type="line"/>
      <point x="431" y="1825" type="line"/>
      <point x="938" y="1825" type="line"/>
    </contour>
    <contour>
      <point x="214" y="1820" type="qcurve" smooth="yes"/>
      <point x="177" y="1784"/>
      <point x="127" y="1784" type="qcurve" smooth="yes"/>
      <point x="76" y="1784"/>
      <point x="39" y="1820" type="qcurve" smooth="yes"/>
      <point x="3" y="1856"/>
      <point x="3" y="1907" type="qcurve" smooth="yes"/>
      <point x="3" y="1959"/>
      <point x="39" y="1995" type="qcurve" smooth="yes"/>
      <point x="76" y="2031"/>
      <point x="127" y="2031" type="qcurve" smooth="yes"/>
      <point x="177" y="2031"/>
      <point x="214" y="1995" type="qcurve" smooth="yes"/>
      <point x="250" y="1959"/>
      <point x="250" y="1907" type="qcurve" smooth="yes"/>
      <point x="250" y="1856"/>
    </contour>
  </outline>
</glyph>
<glyph name="WO" format="2">
  <unicode hex="11074"/>
  <anchor x="1086" y="1990" name="_top"/>
  <outline>
    <contour>
      <point x="934" y="1659" type="line"/>
      <point x="420" y="1659" type="line"/>
      <point x="420" y="1493" type="line"/>
      <point x="934" y="1493" type="line"/>
    </contour>
    <contour>
      <point x="1078" y="1825" type="line"/>
      <point x="1587" y="1825" type="line"/>
      <point x="1587" y="1990" type="line"/>
      <point x="1078" y="1990" type="line"/>
    </contour>
    <contour>
      <point x="217" y="1486" type="qcurve"/>
      <point x="180" y="1451"/>
      <point x="130" y="1451" type="qcurve" smooth="yes"/>
      <point x="79" y="1451"/>
      <point x="42" y="1486" type="qcurve"/>
      <point x="6" y="1522"/>
      <point x="6" y="1574" type="qcurve" smooth="yes"/>
      <point x="6" y="1625"/>
      <point x="42" y="1660" type="qcurve"/>
      <point x="79" y="1698"/>
      <point x="130" y="1698" type="qcurve" smooth="yes"/>
      <point x="180" y="1698"/>
      <point x="217" y="1660" type="qcurve"/>
      <point x="253" y="1625"/>
      <point x="253" y="1574" type="qcurve" smooth="yes"/>
      <point x="253" y="1522"/>
    </contour>
  </outline>
</glyph>
<glyph name="A.1" format="2">
  <advance width="1295"/>
  <anchor x="1095" y="1589" name="top"/>
  <outline>
    <contour>
      <point x="929" y="1990" type="line"/>
      <point x="929" y="0" type="line"/>
      <point x="1095" y="0" type="line"/>
      <point x="1095" y="1990" type="line"/>
    </contour>
    <contour>
      <point x="948" y="1420" type="line"/>
      <point x="434" y="1411"/>
      <point x="281" y="1689"/>
      <point x="247" y="1990" type="curve" smooth="yes"/>
      <point x="246" y="1995"/>
      <point x="248" y="1985"/>
      <point x="247" y="1990" type="curve"/>
      <point x="83" y="1991" type="line"/>
      <point x="111" y="1539"/>
      <point x="268" y="1223"/>
      <point x="947" y="1230" type="curve"/>
    </contour>
    <contour>
      <point x="949" y="572" type="curve"/>
      <point x="948" y="762" type="line"/>
      <point x="269" y="769"/>
      <point x="112" y="453"/>
      <point x="84" y="1" type="curve"/>
      <point x="248" y="2" type="line"/>
      <point x="249" y="7"/>
      <point x="247" y="-3"/>
      <point x="248" y="2" type="curve" smooth="yes"/>
      <point x="282" y="303"/>
      <point x="435" y="581"/>
    </contour>
  </outline>
  <guideline angle="90" x="100" y="0"/>
  <guideline angle="90" x="266" y="0"/>
  <guideline angle="0" x="0" y="1410"/>
  <guideline angle="0" x="0" y="1244"/>
</glyph>
<glyph name="A.2" format="2">
  <advance width="1303"/>
  <anchor x="1103" y="1024" name="middle_right"/>
  <anchor x="1103" y="1597" name="top"/>
  <outline>
    <contour>
      <point x="937" y="1990" type="line"/>
      <point x="937" y="0" type="line"/>
      <point x="1103" y="0" type="line"/>
      <point x="1103" y="1990" type="line"/>
    </contour>
    <contour>
      <point x="961" y="1108" type="line"/>
      <point x="268" y="1096"/>
      <point x="268" y="1604"/>
      <point x="268" y="1990" type="curve"/>
      <point x="108" y="1991" type="line"/>
      <point x="108" y="1394"/>
      <point x="140" y="909"/>
      <point x="960" y="918" type="curve"/>
    </contour>
    <contour>
      <point x="961" y="881" type="curve"/>
      <point x="960" y="1071" type="line"/>
      <point x="140" y="1080"/>
      <point x="108" y="595"/>
      <point x="108" y="-2" type="curve"/>
      <point x="268" y="-1" type="line"/>
      <point x="268" y="385"/>
      <point x="268" y="893"/>
    </contour>
  </outline>
  <guideline angle="90" x="108" y="0"/>
  <guideline angle="90" x="274" y="0"/>
</glyph>
<glyph name="CA.1" format="2">
  <advance width="1292"/>
  <anchor x="1092" y="3" name="bottom"/>
  <anchor x="1090" y="1574" name="middle_right"/>
  <anchor x="1090" y="1574" name="pulli"/>
  <anchor x="1017" y="1991" name="pulli_top"/>
  <anchor x="1092" y="1991" name="top"/>
  <anchor x="927" y="1991" name="top_left"/>
  <outline>
    <contour>
      <point x="1092" y="3" type="qcurve"/>
      <point x="1092" y="166" type="line"/>
      <point x="1092" y="166" type="line"/>
      <point x="1092" y="311"/>
      <point x="1092" y="415" type="qcurve" smooth="yes"/>
      <point x="1092" y="1991" type="line"/>
      <point x="927" y="1991" type="line"/>
      <point x="927" y="415" type="line" smooth="yes"/>
      <point x="927" y="311"/>
      <point x="932" y="166" type="qcurve"/>
      <point x="266" y="166"/>
      <point x="266" y="913" type="qcurve"/>
      <point x="100" y="913" type="line"/>
      <point x="100" y="0"/>
      <point x="840" y="0" type="qcurve" smooth="yes"/>
      <point x="886" y="0"/>
    </contour>
    <contour>
      <point x="100" y="901" type="line"/>
      <point x="947" y="901" type="line"/>
      <point x="947" y="1067" type="line"/>
      <point x="100" y="1067" type="line"/>
    </contour>
  </outline>
  <guideline angle="0" x="0" y="166"/>
  <guideline angle="90" x="263" y="0"/>
  <guideline angle="90" x="429" y="0"/>
  <guideline angle="90" x="1590" y="0"/>
  <guideline angle="90" x="1756" y="0"/>
</glyph>
<glyph name="CA.3" format="2">
  <advance width="1195"/>
  <anchor x="598" y="0" name="bottom"/>
  <anchor x="680" y="1574" name="middle_right"/>
  <anchor x="680" y="1574" name="pulli"/>
  <anchor x="598" y="1991" name="pulli_top"/>
  <anchor x="680" y="1991" name="top"/>
  <anchor x="514" y="1991" name="top_left"/>
  <outline>
    <contour>
      <point x="680" y="989" type="line"/>
      <point x="821" y="964"/>
      <point x="924" y="873" type="qcurve"/>
      <point x="924" y="1991" type="line"/>
      <point x="1090" y="1991" type="line"/>
      <point x="1095" y="574" type="line"/>
      <point x="1095" y="536"/>
      <point x="1095" y="498" type="qcurve" smooth="yes"/>
      <point x="1095" y="292"/>
      <point x="949" y="147" type="qcurve" smooth="yes"/>
      <point x="803" y="0"/>
      <point x="598" y="0" type="qcurve" smooth="yes"/>
      <point x="392" y="0"/>
      <point x="246" y="147" type="qcurve" smooth="yes"/>
      <point x="100" y="292"/>
      <point x="100" y="498" type="qcurve" smooth="yes"/>
      <point x="100" y="680"/>
      <point x="220" y="820" type="qcurve" smooth="yes"/>
      <point x="342" y="964"/>
      <point x="529" y="991" type="qcurve"/>
    </contour>
    <contour>
      <point x="598" y="166" type="qcurve" smooth="yes"/>
      <point x="734" y="166"/>
      <point x="832" y="264" type="qcurve" smooth="yes"/>
      <point x="924" y="338"/>
      <point x="924" y="658"/>
      <point x="832" y="732" type="qcurve" smooth="yes"/>
      <point x="734" y="829"/>
      <point x="598" y="829" type="qcurve" smooth="yes"/>
      <point x="460" y="829"/>
      <point x="363" y="732" type="qcurve" smooth="yes"/>
      <point x="266" y="635"/>
      <point x="266" y="498" type="qcurve" smooth="yes"/>
      <point x="266" y="361"/>
      <point x="363" y="264" type="qcurve" smooth="yes"/>
      <point x="460" y="166"/>
    </contour>
  </outline>
</glyph>
<glyph name="CA.4" format="2">
  <advance width="1195"/>
  <anchor x="597" y="0" name="bottom"/>
  <anchor x="515" y="1574" name="middle_right"/>
  <anchor x="515" y="1574" name="pulli"/>
  <anchor x="597" y="1991" name="pulli_top"/>
  <anchor x="515" y="1991" name="top"/>
  <anchor x="681" y="1991" name="top_left"/>
  <outline>
    <contour>
      <point x="516" y="1226" type="qcurve"/>
      <point x="667" y="1228" type="line"/>
      <point x="854" y="1201"/>
      <point x="976" y="1057" type="qcurve" smooth="yes"/>
      <point x="1096" y="917"/>
      <point x="1095" y="498" type="qcurve" smooth="yes"/>
      <point x="1095" y="292"/>
      <point x="949" y="147" type="qcurve" smooth="yes"/>
      <point x="802" y="1"/>
      <point x="597" y="0" type="qcurve" smooth="yes"/>
      <point x="393" y="1"/>
      <point x="246" y="147" type="qcurve" smooth="yes"/>
      <point x="100" y="292"/>
      <point x="100" y="498" type="qcurve" smooth="yes"/>
      <point x="101" y="917"/>
      <point x="220" y="1057" type="qcurve" smooth="yes"/>
      <point x="338" y="1195"/>
    </contour>
    <contour>
      <point x="597" y="166" type="qcurve" smooth="yes"/>
      <point x="734" y="166"/>
      <point x="832" y="264" type="qcurve" smooth="yes"/>
      <point x="929" y="361"/>
      <point x="929" y="498" type="qcurve" smooth="yes"/>
      <point x="930" y="872"/>
      <point x="833" y="969" type="qcurve" smooth="yes"/>
      <point x="736" y="1066"/>
      <point x="598" y="1066" type="qcurve" smooth="yes"/>
      <point x="462" y="1066"/>
      <point x="364" y="969" type="qcurve" smooth="yes"/>
      <point x="267" y="872"/>
      <point x="266" y="498" type="qcurve" smooth="yes"/>
      <point x="266" y="361"/>
      <point x="363" y="264" type="qcurve" smooth="yes"/>
      <point x="461" y="166"/>
    </contour>
    <contour>
      <point x="1096" y="1991" type="line"/>
      <point x="1096" y="594" type="line"/>
      <point x="930" y="594" type="line"/>
      <point x="930" y="1991" type="line"/>
    </contour>
  </outline>
</glyph>
<glyph name="EE.1" format="2">
  <advance width="1461"/>
  <anchor x="1361" y="995" name="pulli"/>
  <anchor x="761" y="774" name="pulli_inside"/>
  <anchor x="200" y="995" name="pulli_left"/>
  <anchor x="689" y="1990" name="pulli_top"/>
  <outline>
    <contour>
      <point x="1776" y="164" type="line"/>
      <point x="1776" y="-2" type="line"/>
      <point x="-215" y="-2" type="line"/>
      <point x="-215" y="164" type="line"/>
      <point x="781" y="1991" type="line"/>
    </contour>
    <contour>
      <point x="771" y="1571" type="line"/>
      <point x="18" y="164" type="line"/>
      <point x="1540" y="164" type="line"/>
    </contour>
  </outline>
</glyph>
<glyph name="EE.2" format="2">
  <advance width="1627"/>
  <anchor x="781" y="0" name="bottom"/>
  <anchor x="1687" y="1574" name="pulli"/>
  <anchor x="366" y="1574" name="pulli.left"/>
  <anchor x="875" y="998" name="pulli_inside"/>
  <anchor x="788" y="1991" name="pulli_top"/>
  <anchor x="1210" y="1819" name="top"/>
  <anchor x="200" y="1991" name="top_left"/>
  <outline>
    <contour>
      <point x="558" y="1991" type="line" smooth="yes"/>
      <point x="676" y="1991"/>
      <point x="1082" y="1989"/>
      <point x="1197" y="1962" type="curve" smooth="yes"/>
      <point x="1647" y="1858"/>
      <point x="1809" y="1426"/>
      <point x="1809" y="1007" type="curve" smooth="yes"/>
      <point x="1809" y="691"/>
      <point x="1715" y="319"/>
      <point x="1436" y="134" type="curve" smooth="yes"/>
      <point x="1276" y="28"/>
      <point x="780" y="0"/>
      <point x="592" y="0" type="curve" smooth="yes"/>
      <point x="200" y="0" type="line"/>
      <point x="200" y="1991" type="line"/>
    </contour>
    <contour>
      <point x="366" y="175" type="line"/>
      <point x="915" y="175" type="line" smooth="yes"/>
      <point x="1065" y="175"/>
      <point x="1227" y="197"/>
      <point x="1352" y="286" type="curve" smooth="yes"/>
      <point x="1573" y="443"/>
      <point x="1642" y="754"/>
      <point x="1642" y="1009" type="curve" smooth="yes"/>
      <point x="1642" y="1340"/>
      <point x="1528" y="1712"/>
      <point x="1168" y="1802" type="curve" smooth="yes"/>
      <point x="1078" y="1824"/>
      <point x="981" y="1826"/>
      <point x="889" y="1826" type="curve" smooth="yes"/>
      <point x="366" y="1826" type="line"/>
    </contour>
  </outline>
</glyph>
<glyph name="EE.3" format="2">
  <advance width="1461"/>
  <anchor x="2117" y="1749" name="pulli"/>
  <anchor x="657" y="998" name="pulli_inside"/>
  <anchor x="200" y="995" name="pulli_left"/>
  <anchor x="689" y="1990" name="pulli_top"/>
  <outline>
    <contour>
      <point x="1156.53" y="609.281" type="line" smooth="yes"/>
      <point x="1456.81" y="840.713"/>
      <point x="1456.81" y="1149.29"/>
      <point x="1156.53" y="1380.72" type="curve" smooth="yes"/>
      <point x="366" y="1990" type="line"/>
      <point x="200" y="1990" type="line"/>
      <point x="200" y="0" type="line"/>
      <point x="366" y="0" type="line"/>
    </contour>
    <contour>
      <point x="907.177" y="1367.63" type="line" smooth="yes"/>
      <point x="1215.47" y="1145.25"/>
      <point x="1215.47" y="848.746"/>
      <point x="907.177" y="626.366" type="curve" smooth="yes"/>
      <point x="366" y="236" type="line"/>
      <point x="366" y="1758" type="line"/>
    </contour>
  </outline>
</glyph>
<glyph name="I.1" format="2">
  <advance width="2130"/>
  <outline>
    <contour>
      <point x="1683" y="123" type="qcurve" smooth="yes"/>
      <point x="1683" y="174"/>
      <point x="1719" y="210" type="qcurve" smooth="yes"/>
      <point x="1755" y="246"/>
      <point x="1806" y="246" type="qcurve" smooth="yes"/>
      <point x="1858" y="246"/>
      <point x="1894" y="210" type="qcurve" smooth="yes"/>
      <point x="1930" y="174"/>
      <point x="1930" y="123" type="qcurve" smooth="yes"/>
      <point x="1930" y="72"/>
      <point x="1894" y="36" type="qcurve" smooth="yes"/>
      <point x="1858" y="-1"/>
      <point x="1806" y="-1" type="qcurve" smooth="yes"/>
      <point x="1755" y="-1"/>
      <point x="1719" y="36" type="qcurve" smooth="yes"/>
      <point x="1683" y="72"/>
    </contour>
    <contour>
      <point x="1679" y="1847" type="qcurve" smooth="yes"/>
      <point x="1679" y="1898"/>
      <point x="1715" y="1934" type="qcurve" smooth="yes"/>
      <point x="1751" y="1970"/>
      <point x="1802" y="1970" type="qcurve" smooth="yes"/>
      <point x="1853" y="1970"/>
      <point x="1890" y="1934" type="qcurve" smooth="yes"/>
      <point x="1926" y="1898"/>
      <point x="1926" y="1847" type="qcurve" smooth="yes"/>
      <point x="1926" y="1795"/>
      <point x="1890" y="1759" type="qcurve" smooth="yes"/>
      <point x="1853" y="1723"/>
      <point x="1802" y="1723" type="qcurve" smooth="yes"/>
      <point x="1751" y="1723"/>
      <point x="1715" y="1759" type="qcurve" smooth="yes"/>
      <point x="1679" y="1795"/>
    </contour>
    <contour>
      <point x="200" y="979" type="qcurve" smooth="yes"/>
      <point x="200" y="1030"/>
      <point x="236" y="1066" type="qcurve" smooth="yes"/>
      <point x="272" y="1102"/>
      <point x="323" y="1102" type="qcurve" smooth="yes"/>
      <point x="374" y="1102"/>
      <point x="411" y="1066" type="qcurve" smooth="yes"/>
      <point x="447" y="1030"/>
      <point x="447" y="979" type="qcurve" smooth="yes"/>
      <point x="447" y="927"/>
      <point x="411" y="891" type="qcurve" smooth="yes"/>
      <point x="374" y="855"/>
      <point x="323" y="855" type="qcurve" smooth="yes"/>
      <point x="272" y="855"/>
      <point x="236" y="891" type="qcurve" smooth="yes"/>
      <point x="200" y="927"/>
    </contour>
  </outline>
</glyph>
<glyph name="I.2" format="2">
  <advance width="2371"/>
  <outline>
    <contour>
      <point x="2047" y="1602" type="qcurve" smooth="yes"/>
      <point x="2098" y="1602"/>
      <point x="2134" y="1638" type="qcurve" smooth="yes"/>
      <point x="2171" y="1674"/>
      <point x="2171" y="1725" type="qcurve" smooth="yes"/>
      <point x="2171" y="1777"/>
      <point x="2134" y="1813" type="qcurve" smooth="yes"/>
      <point x="2098" y="1849"/>
      <point x="2047" y="1849" type="qcurve" smooth="yes"/>
      <point x="1996" y="1849"/>
      <point x="1960" y="1813" type="qcurve" smooth="yes"/>
      <point x="1924" y="1777"/>
      <point x="1924" y="1725" type="qcurve" smooth="yes"/>
      <point x="1924" y="1674"/>
      <point x="1960" y="1638" type="qcurve" smooth="yes"/>
      <point x="1996" y="1602"/>
    </contour>
    <contour>
      <point x="323" y="1598" type="qcurve" smooth="yes"/>
      <point x="375" y="1598"/>
      <point x="411" y="1634" type="qcurve" smooth="yes"/>
      <point x="447" y="1670"/>
      <point x="447" y="1721" type="qcurve" smooth="yes"/>
      <point x="447" y="1772"/>
      <point x="411" y="1809" type="qcurve" smooth="yes"/>
      <point x="375" y="1845"/>
      <point x="323" y="1845" type="qcurve" smooth="yes"/>
      <point x="272" y="1845"/>
      <point x="236" y="1809" type="qcurve" smooth="yes"/>
      <point x="200" y="1772"/>
      <point x="200" y="1721" type="qcurve" smooth="yes"/>
      <point x="200" y="1670"/>
      <point x="236" y="1634" type="qcurve" smooth="yes"/>
      <point x="272" y="1598"/>
    </contour>
    <contour>
      <point x="1191" y="120" type="qcurve" smooth="yes"/>
      <point x="1243" y="120"/>
      <point x="1279" y="156" type="qcurve" smooth="yes"/>
      <point x="1315" y="192"/>
      <point x="1315" y="243" type="qcurve" smooth="yes"/>
      <point x="1315" y="294"/>
      <point x="1279" y="331" type="qcurve" smooth="yes"/>
      <point x="1243" y="367"/>
      <point x="1191" y="367" type="qcurve" smooth="yes"/>
      <point x="1140" y="367"/>
      <point x="1104" y="331" type="qcurve" smooth="yes"/>
      <point x="1068" y="294"/>
      <point x="1068" y="243" type="qcurve" smooth="yes"/>
      <point x="1068" y="192"/>
      <point x="1104" y="156" type="qcurve" smooth="yes"/>
      <point x="1140" y="120"/>
    </contour>
  </outline>
</glyph>
<glyph name="JAA" format="2">
  <advance width="1567"/>
  <anchor x="140" y="1434" name="middle_left"/>
  <anchor x="140" y="1434" name="top_left"/>
  <outline>
    <contour>
      <point x="969" y="0" type="line"/>
      <point x="638" y="0" type="line" smooth="yes"/>
      <point x="432" y="0"/>
      <point x="287" y="147" type="qcurve"/>
      <point x="140" y="292"/>
      <point x="140" y="498" type="qcurve" smooth="yes"/>
      <point x="140" y="581" type="line" smooth="yes"/>
      <point x="140" y="848"/>
      <point x="363" y="995" type="qcurve"/>
      <point x="140" y="1144"/>
      <point x="140" y="1411" type="qcurve" smooth="yes"/>
      <point x="140" y="1493" type="line" smooth="yes"/>
      <point x="140" y="1698"/>
      <point x="287" y="1844" type="qcurve"/>
      <point x="432" y="1991"/>
      <point x="638" y="1991" type="qcurve" smooth="yes"/>
      <point x="969" y="1991" type="line"/>
      <point x="969" y="1825" type="line"/>
      <point x="638" y="1825" type="line" smooth="yes"/>
      <point x="502" y="1825"/>
      <point x="403" y="1721" type="qcurve"/>
      <point x="306" y="1617"/>
      <point x="306" y="1479" type="qcurve" smooth="yes"/>
      <point x="306" y="1424" type="line" smooth="yes"/>
      <point x="306" y="1285"/>
      <point x="403" y="1183" type="qcurve" smooth="yes"/>
      <point x="502" y="1079"/>
      <point x="638" y="1079" type="qcurve" smooth="yes"/>
      <point x="804" y="1079" type="line"/>
      <point x="804" y="1245" type="line"/>
      <point x="969" y="1245" type="line"/>
      <point x="969" y="1079" type="line"/>
      <point x="1467" y="1079" type="line"/>
      <point x="1467" y="913" type="line"/>
      <point x="969" y="913" type="line"/>
      <point x="969" y="747" type="line"/>
      <point x="804" y="747" type="line"/>
      <point x="804" y="913" type="line"/>
      <point x="638" y="913" type="line" smooth="yes"/>
      <point x="502" y="913"/>
      <point x="403" y="808" type="qcurve" smooth="yes"/>
      <point x="306" y="705"/>
      <point x="306" y="568" type="qcurve" smooth="yes"/>
      <point x="306" y="512" type="line" smooth="yes"/>
      <point x="306" y="374"/>
      <point x="403" y="271" type="qcurve" smooth="yes"/>
      <point x="502" y="166"/>
      <point x="638" y="166" type="qcurve" smooth="yes"/>
      <point x="969" y="166" type="line"/>
    </contour>
  </outline>
</glyph>
<glyph name="KA.3" format="2">
  <advance width="1693"/>
  <anchor x="929" y="0" name="bottom"/>
  <anchor x="929" y="1574" name="middle_right"/>
  <anchor x="929" y="1574" name="pulli"/>
  <anchor x="854" y="1991" name="pulli_top"/>
  <anchor x="929" y="1991" name="top"/>
  <anchor x="764" y="1991" name="top_left"/>
  <anchor x="929" y="1574" name="top_mid"/>
  <outline>
    <contour>
      <point x="764" y="1991" type="line"/>
      <point x="929" y="1991" type="line"/>
      <point x="929" y="1079" type="line"/>
      <point x="1423" y="1079" type="line"/>
      <point x="1423" y="913" type="line"/>
      <point x="929" y="913" type="line"/>
      <point x="929" y="0" type="line"/>
      <point x="764" y="0" type="line"/>
      <point x="764" y="913" type="line"/>
      <point x="239" y="913" type="line"/>
      <point x="239" y="1079" type="line"/>
      <point x="764" y="1079" type="line"/>
    </contour>
  </outline>
  <guideline angle="0" x="0" y="3201"/>
  <guideline angle="0" x="0" y="1824"/>
</glyph>
<glyph name="KA.4" format="2">
  <advance width="1693"/>
  <anchor x="929" y="0" name="bottom"/>
  <anchor x="929" y="1574" name="middle_right"/>
  <anchor x="929" y="1574" name="pulli"/>
  <anchor x="854" y="1991" name="pulli_top"/>
  <anchor x="929" y="1991" name="top"/>
  <anchor x="764" y="1991" name="top_left"/>
  <anchor x="929" y="1574" name="top_mid"/>
  <outline>
    <contour>
      <point x="764" y="1991" type="line"/>
      <point x="764" y="0" type="line"/>
      <point x="929" y="0" type="line"/>
      <point x="929" y="1991" type="line"/>
    </contour>
    <contour>
      <point x="779" y="884" type="line"/>
      <point x="265" y="884" type="line"/>
      <point x="265" y="718" type="line"/>
      <point x="779" y="718" type="line"/>
    </contour>
    <contour>
      <point x="914" y="718" type="line"/>
      <point x="1423" y="718" type="line"/>
      <point x="1423" y="884" type="line"/>
      <point x="914" y="884" type="line"/>
    </contour>
  </outline>
</glyph>
<glyph name="LA.2" format="2">
  <advance width="1793"/>
  <anchor x="1096" y="0" name="bottom"/>
  <anchor x="1593" y="1574" name="middle_right"/>
  <anchor x="1593" y="1574" name="pulli"/>
  <anchor x="1530" y="1971" name="pulli_top"/>
  <anchor x="1593" y="1991" name="top"/>
  <anchor x="1427" y="1991" name="top_left"/>
  <outline>
    <contour>
      <point x="1427" y="1991" type="line"/>
      <point x="1593" y="1991" type="line"/>
      <point x="1593" y="415" type="line" smooth="yes"/>
      <point x="1593" y="244"/>
      <point x="1471" y="122" type="qcurve" smooth="yes"/>
      <point x="1349" y="0"/>
      <point x="1178" y="0" type="qcurve" smooth="yes"/>
      <point x="1012" y="0" type="line" smooth="yes"/>
      <point x="603" y="0"/>
      <point x="598" y="559" type="qcurve" smooth="yes"/>
      <point x="598" y="559"/>
      <point x="598" y="762" type="qcurve" smooth="yes"/>
      <point x="598" y="1825" type="line"/>
      <point x="100" y="1825" type="line"/>
      <point x="100" y="1991" type="line"/>
      <point x="764" y="1991" type="line"/>
      <point x="764" y="801" type="line" smooth="yes"/>
      <point x="764" y="664"/>
      <point x="764" y="559" type="qcurve" smooth="yes"/>
      <point x="764" y="166"/>
      <point x="1040" y="166" type="qcurve" smooth="yes"/>
      <point x="1151" y="166" type="line" smooth="yes"/>
      <point x="1265" y="166"/>
      <point x="1346" y="251" type="qcurve" smooth="yes"/>
      <point x="1427" y="335"/>
      <point x="1427" y="454" type="qcurve" smooth="yes"/>
    </contour>
  </outline>
  <guideline angle="90" x="598" y="0"/>
  <guideline angle="90" x="764" y="0"/>
</glyph>
<glyph name="LLA.4" format="2">
  <advance width="2357"/>
  <anchor x="1110" y="0" name="bottom"/>
  <anchor x="1593" y="1574" name="middle_right"/>
  <anchor x="1593" y="1574" name="pulli"/>
  <anchor x="1512" y="1991" name="pulli_top"/>
  <anchor x="1593" y="1991" name="top"/>
  <anchor x="1427" y="1991" name="top_left"/>
  <outline>
    <contour>
      <point x="1427" y="1991" type="line"/>
      <point x="1593" y="1991" type="line"/>
      <point x="1593" y="913" type="line"/>
      <point x="2257" y="913" type="line"/>
      <point x="2257" y="0" type="line"/>
      <point x="2091" y="0" type="line"/>
      <point x="2091" y="747" type="line"/>
      <point x="1593" y="747" type="line"/>
      <point x="1593" y="415" type="line" smooth="yes"/>
      <point x="1593" y="244"/>
      <point x="1471" y="122" type="qcurve" smooth="yes"/>
      <point x="1349" y="0"/>
      <point x="1178" y="0" type="qcurve" smooth="yes"/>
      <point x="1012" y="0" type="line" smooth="yes"/>
      <point x="841" y="0"/>
      <point x="720" y="122" type="qcurve" smooth="yes"/>
      <point x="598" y="244"/>
      <point x="598" y="415" type="qcurve" smooth="yes"/>
      <point x="598" y="1824" type="line"/>
      <point x="100" y="1824" type="line"/>
      <point x="100" y="1990" type="line"/>
      <point x="764" y="1990" type="line"/>
      <point x="764" y="454" type="line" smooth="yes"/>
      <point x="764" y="335"/>
      <point x="845" y="251" type="qcurve" smooth="yes"/>
      <point x="926" y="166"/>
      <point x="1040" y="166" type="qcurve" smooth="yes"/>
      <point x="1151" y="166" type="line" smooth="yes"/>
      <point x="1265" y="166"/>
      <point x="1346" y="251" type="qcurve" smooth="yes"/>
      <point x="1427" y="335"/>
      <point x="1427" y="454" type="qcurve" smooth="yes"/>
    </contour>
  </outline>
</glyph>
<glyph name="LLA.5" format="2">
  <advance width="2357"/>
  <anchor x="1110" y="0" name="bottom"/>
  <anchor x="1593" y="1574" name="middle_right"/>
  <anchor x="1593" y="1574" name="pulli"/>
  <anchor x="1512" y="1991" name="pulli_top"/>
  <anchor x="1593" y="1991" name="top"/>
  <anchor x="1427" y="1991" name="top_left"/>
  <outline>
    <contour>
      <point x="1427" y="1991" type="line"/>
      <point x="1427" y="454" type="line" smooth="yes"/>
      <point x="1427" y="335"/>
      <point x="1346" y="251" type="qcurve" smooth="yes"/>
      <point x="1265" y="166"/>
      <point x="1151" y="166" type="qcurve" smooth="yes"/>
      <point x="1040" y="166" type="line" smooth="yes"/>
      <point x="926" y="166"/>
      <point x="845" y="251" type="qcurve" smooth="yes"/>
      <point x="764" y="335"/>
      <point x="764" y="454" type="qcurve" smooth="yes"/>
      <point x="764" y="1990" type="line"/>
      <point x="100" y="1990" type="line"/>
      <point x="100" y="1824" type="line"/>
      <point x="598" y="1824" type="line"/>
      <point x="598" y="415" type="line" smooth="yes"/>
      <point x="598" y="244"/>
      <point x="720" y="122" type="qcurve" smooth="yes"/>
      <point x="841" y="0"/>
      <point x="1012" y="0" type="qcurve" smooth="yes"/>
      <point x="1178" y="0" type="line" smooth="yes"/>
      <point x="1349" y="0"/>
      <point x="1471" y="122" type="qcurve" smooth="yes"/>
      <point x="1593" y="244"/>
      <point x="1593" y="415" type="qcurve" smooth="yes"/>
      <point x="1593" y="1991" type="line"/>
    </contour>
    <contour>
      <point x="1568" y="747" type="line"/>
      <point x="2182" y="761"/>
      <point x="2091" y="419"/>
      <point x="2091" y="0" type="curve"/>
      <point x="2257" y="0" type="line"/>
      <point x="2235" y="533"/>
      <point x="2321" y="922"/>
      <point x="1569" y="913" type="curve"/>
    </contour>
  </outline>
  <guideline angle="90" x="2257" y="0"/>
  <guideline angle="90" x="2091" y="0"/>
  <guideline angle="0" x="0" y="913"/>
  <guideline angle="0" x="0" y="747"/>
</glyph>
<glyph name="LLLA.3" format="2">
  <advance width="1544"/>
  <anchor x="366" y="0" name="bottom"/>
  <anchor x="451" y="1434" name="middle_left"/>
  <anchor x="1435" y="1574" name="middle_right"/>
  <anchor x="1438" y="1574" name="pulli"/>
  <anchor x="954" y="1991" name="pulli_top"/>
  <anchor x="1438" y="1574" name="top"/>
  <anchor x="479" y="1746" name="top_left"/>
  <outline>
    <contour>
      <point x="366" y="664" type="line"/>
      <point x="366" y="0" type="line"/>
      <point x="200" y="0" type="line"/>
      <point x="200" y="829" type="line"/>
      <point x="864" y="829" type="line"/>
      <point x="864" y="1002" type="line"/>
      <point x="686" y="1033"/>
      <point x="568" y="1170" type="qcurve" smooth="yes"/>
      <point x="448" y="1310"/>
      <point x="448" y="1493" type="qcurve" smooth="yes"/>
      <point x="448" y="1583"/>
      <point x="476" y="1661" type="qcurve" smooth="yes"/>
      <point x="476" y="1661" type="line"/>
      <point x="663" y="1660" type="line"/>
      <point x="614" y="1593"/>
      <point x="614" y="1493" type="qcurve" smooth="yes"/>
      <point x="614" y="1379"/>
      <point x="685" y="1289" type="qcurve" smooth="yes"/>
      <point x="755" y="1200"/>
      <point x="864" y="1171" type="qcurve"/>
      <point x="864" y="1815" type="line"/>
      <point x="864" y="1985" type="line"/>
      <point x="904" y="1991"/>
      <point x="946" y="1991" type="qcurve" smooth="yes"/>
      <point x="1151" y="1991"/>
      <point x="1298" y="1845" type="qcurve" smooth="yes"/>
      <point x="1444" y="1698"/>
      <point x="1444" y="1493" type="qcurve" smooth="yes"/>
      <point x="1444" y="1310"/>
      <point x="1325" y="1170" type="qcurve" smooth="yes"/>
      <point x="1207" y="1033"/>
      <point x="1029" y="1002" type="qcurve"/>
      <point x="1029" y="664" type="line"/>
    </contour>
    <contour>
      <point x="1029" y="1171" type="line"/>
      <point x="1138" y="1200"/>
      <point x="1208" y="1289" type="qcurve" smooth="yes"/>
      <point x="1278" y="1379"/>
      <point x="1278" y="1493" type="qcurve" smooth="yes"/>
      <point x="1278" y="1607"/>
      <point x="1208" y="1697" type="qcurve" smooth="yes"/>
      <point x="1138" y="1786"/>
      <point x="1029" y="1815" type="qcurve"/>
    </contour>
  </outline>
</glyph>
<glyph name="MA.4" format="2">
  <advance width="1693"/>
  <anchor x="1593" y="0" name="bottom"/>
  <anchor x="929" y="1574" name="middle_right"/>
  <anchor x="929" y="1574" name="pulli"/>
  <anchor x="854" y="1991" name="pulli_top"/>
  <anchor x="1976" y="145" name="right"/>
  <anchor x="929" y="1991" name="top"/>
  <anchor x="764" y="1991" name="top_left"/>
  <outline>
    <contour>
      <point x="847" y="1213" type="line"/>
      <point x="100" y="0" type="line"/>
      <point x="266" y="0" type="line"/>
      <point x="846" y="907" type="line"/>
      <point x="1427" y="0" type="line"/>
      <point x="1593" y="0" type="line"/>
    </contour>
    <contour>
      <point x="255" y="0" type="line"/>
      <point x="1444" y="0" type="line"/>
      <point x="1444" y="165" type="line"/>
      <point x="255" y="165" type="line"/>
    </contour>
    <contour>
      <point x="590" y="796" type="curve"/>
      <point x="774" y="796" type="line"/>
      <point x="1519" y="1991" type="line"/>
      <point x="1340" y="1991" type="line"/>
      <point x="1045" y="1521"/>
      <point x="881" y="1269"/>
    </contour>
    <contour>
      <point x="1103" y="796" type="line"/>
      <point x="812" y="1269"/>
      <point x="658" y="1521"/>
      <point x="363" y="1991" type="curve"/>
      <point x="184" y="1991" type="line"/>
      <point x="918" y="795" type="line"/>
    </contour>
  </outline>
  <guideline angle="90" x="2093" y="0"/>
</glyph>
<glyph name="NA.1" format="2">
  <advance width="1693"/>
  <anchor x="1593" y="0" name="bottom"/>
  <anchor x="929" y="1574" name="pulli"/>
  <anchor x="854" y="1991" name="pulli_top"/>
  <anchor x="929" y="1991" name="top"/>
  <anchor x="764" y="1991" name="top_left"/>
  <outline>
    <contour>
      <point x="764" y="1991" type="line"/>
      <point x="929" y="1991" type="line"/>
      <point x="929" y="166" type="line"/>
      <point x="1423" y="166" type="line"/>
      <point x="1423" y="0" type="line"/>
      <point x="265" y="0" type="line"/>
      <point x="265" y="166" type="line"/>
      <point x="764" y="166" type="line"/>
    </contour>
  </outline>
</glyph>
<glyph name="NGA.1" format="2">
  <advance width="1295"/>
  <anchor x="1195" y="0" name="bottom"/>
  <anchor x="200" y="998" name="middle_left"/>
  <anchor x="366" y="998" name="middle_right"/>
  <anchor x="366" y="998" name="pulli"/>
  <anchor x="643" y="1991" name="pulli_top"/>
  <anchor x="956" y="1991" name="top"/>
  <outline>
    <contour>
      <point x="956" y="1991" type="line"/>
      <point x="956" y="1825" type="line"/>
      <point x="366" y="1825" type="line"/>
      <point x="366" y="166" type="line"/>
      <point x="956" y="166" type="line"/>
      <point x="956" y="0" type="line"/>
      <point x="200" y="0" type="line"/>
      <point x="200" y="1991" type="line"/>
    </contour>
  </outline>
</glyph>
<glyph name="NGA.2" format="2">
  <advance width="1295"/>
  <anchor x="1195" y="482" name="bottom"/>
  <anchor x="200" y="998" name="middle_left"/>
  <anchor x="366" y="998" name="middle_right"/>
  <anchor x="366" y="998" name="pulli"/>
  <anchor x="768" y="1991" name="pulli_top"/>
  <anchor x="1195" y="1991" name="top"/>
  <outline>
    <contour>
      <point x="1195" y="1991" type="line"/>
      <point x="1195" y="1825" type="line"/>
      <point x="366" y="1825" type="line"/>
      <point x="366" y="648" type="line"/>
      <point x="1195" y="648" type="line"/>
      <point x="1195" y="482" type="line"/>
      <point x="200" y="482" type="line"/>
      <point x="200" y="1991" type="line"/>
    </contour>
  </outline>
</glyph>
<glyph name="NGA.pulli.topa.alt" format="2">
  <advance width="1295"/>
  <anchor x="1195" y="0" name="bottom"/>
  <anchor x="200" y="998" name="middle_left"/>
  <anchor x="366" y="998" name="middle_right"/>
  <anchor x="1195" y="1572" name="pulli"/>
  <anchor x="768" y="1991" name="pulli_top"/>
  <anchor x="1195" y="1991" name="top"/>
  <outline>
    <contour>
      <point x="1195" y="1991" type="line"/>
      <point x="1195" y="1825" type="line"/>
      <point x="366" y="1825" type="line"/>
      <point x="366" y="166" type="line"/>
      <point x="1195" y="166" type="line"/>
      <point x="1195" y="0" type="line"/>
      <point x="200" y="0" type="line"/>
      <point x="200" y="1991" type="line"/>
    </contour>
  </outline>
</glyph>
<glyph name="NNA.1" format="2">
  <advance width="1693"/>
  <anchor x="1423" y="0" name="bottom"/>
  <anchor x="764" y="998" name="middle_left"/>
  <anchor x="929" y="998" name="middle_right"/>
  <anchor x="929" y="998" name="pulli"/>
  <anchor x="854" y="1991" name="pulli_top"/>
  <anchor x="1423" y="1991" name="top"/>
  <outline>
    <contour>
      <point x="1423" y="1991" type="line"/>
      <point x="1423" y="1825" type="line"/>
      <point x="929" y="1825" type="line"/>
      <point x="929" y="166" type="line"/>
      <point x="1423" y="166" type="line"/>
      <point x="1423" y="0" type="line"/>
      <point x="265" y="0" type="line"/>
      <point x="265" y="166" type="line"/>
      <point x="764" y="166" type="line"/>
      <point x="764" y="1825" type="line"/>
      <point x="265" y="1825" type="line"/>
      <point x="265" y="1991" type="line"/>
    </contour>
  </outline>
</glyph>
<glyph name="NNNA.2" format="2">
  <advance width="1793"/>
  <anchor x="1593" y="0" name="bottom"/>
  <anchor x="680" y="1574" name="middle_left"/>
  <anchor x="2071" y="878" name="middle_right"/>
  <anchor x="2071" y="1111" name="middle_right.1"/>
  <anchor x="2071" y="1577" name="pulli"/>
  <anchor x="1328" y="1991" name="pulli_top"/>
  <anchor x="1328" y="1991" name="top"/>
  <anchor x="837" y="1991" name="top_left"/>
  <outline>
    <contour>
      <point x="100" y="0" type="line"/>
      <point x="100" y="166" type="line"/>
      <point x="680" y="166" type="line"/>
      <point x="680" y="1577" type="line" smooth="yes"/>
      <point x="680" y="1747"/>
      <point x="802" y="1869" type="qcurve" smooth="yes"/>
      <point x="924" y="1991"/>
      <point x="1095" y="1991" type="qcurve" smooth="yes"/>
      <point x="1654" y="1991" type="line" smooth="yes"/>
      <point x="1825" y="1991"/>
      <point x="1947" y="1869" type="qcurve" smooth="yes"/>
      <point x="2069" y="1747"/>
      <point x="2069" y="1577" type="qcurve" smooth="yes"/>
      <point x="2069" y="-499" type="line"/>
      <point x="1903" y="-499" type="line"/>
      <point x="1903" y="1538" type="line" smooth="yes"/>
      <point x="1903" y="1678"/>
      <point x="1822" y="1740" type="qcurve" smooth="yes"/>
      <point x="1690" y="1825"/>
      <point x="1627" y="1825" type="qcurve" smooth="yes"/>
      <point x="1598" y="1825" type="line" smooth="yes"/>
      <point x="1128" y="1825"/>
      <point x="1019" y="1824" type="qcurve" smooth="yes"/>
      <point x="846" y="1748"/>
      <point x="846" y="1538" type="qcurve" smooth="yes"/>
      <point x="846" y="166" type="line"/>
      <point x="1593" y="166" type="line"/>
      <point x="1593" y="0" type="line"/>
    </contour>
  </outline>
</glyph>
<glyph name="NYA.1" format="2">
  <advance width="1793"/>
  <anchor x="1553" y="0" name="bottom"/>
  <anchor x="864" y="1586" name="pulli"/>
  <anchor x="1207" y="1991" name="pulli_top"/>
  <anchor x="864" y="1667" name="top"/>
  <anchor x="698" y="1667" name="top_left"/>
  <outline>
    <contour>
      <point x="864" y="1991" type="line"/>
      <point x="200" y="1991" type="line"/>
      <point x="200" y="1825" type="line"/>
      <point x="698" y="1825" type="line"/>
      <point x="698" y="0" type="line"/>
      <point x="864" y="0" type="line"/>
    </contour>
    <contour>
      <point x="864" y="827" type="line"/>
      <point x="1478" y="841"/>
      <point x="1387" y="419"/>
      <point x="1387" y="0" type="curve"/>
      <point x="1553" y="0" type="line"/>
      <point x="1531" y="533"/>
      <point x="1617" y="1002"/>
      <point x="865" y="993" type="curve"/>
    </contour>
  </outline>
  <guideline angle="0" x="0" y="1899"/>
</glyph>
<glyph name="NYA.2" format="2">
  <advance width="1793"/>
  <anchor x="1553" y="0" name="bottom"/>
  <anchor x="864" y="1586" name="pulli"/>
  <anchor x="1207" y="1991" name="pulli_top"/>
  <anchor x="864" y="1667" name="top"/>
  <anchor x="698" y="1667" name="top_left"/>
  <outline>
    <contour>
      <point x="1208" y="1991" type="line"/>
      <point x="265" y="1991" type="line"/>
      <point x="265" y="1825" type="line"/>
      <point x="993" y="1824" type="line"/>
      <point x="533" y="2" type="line"/>
      <point x="693" y="0" type="line"/>
    </contour>
    <contour>
      <point x="864" y="811" type="line"/>
      <point x="1478" y="825"/>
      <point x="1387" y="419"/>
      <point x="1387" y="0" type="curve"/>
      <point x="1553" y="0" type="line"/>
      <point x="1531" y="533"/>
      <point x="1617" y="986"/>
      <point x="865" y="977" type="curve"/>
    </contour>
  </outline>
  <guideline angle="0" x="0" y="1899"/>
  <guideline angle="90" x="504" y="0"/>
</glyph>
<glyph name="NYA.3" format="2">
  <advance width="1793"/>
  <anchor x="1693" y="0" name="bottom"/>
  <anchor x="864" y="1574" name="pulli"/>
  <anchor x="1207" y="1991" name="pulli_top"/>
  <anchor x="864" y="1667" name="top"/>
  <anchor x="698" y="1667" name="top_left"/>
  <outline>
    <contour>
      <point x="864" y="1991" type="line"/>
      <point x="864" y="1432" type="line"/>
      <point x="1693" y="1432" type="line"/>
      <point x="1693" y="0" type="line"/>
      <point x="1527" y="0" type="line"/>
      <point x="1527" y="1266" type="line"/>
      <point x="864" y="1266" type="line"/>
      <point x="864" y="0" type="line"/>
      <point x="698" y="0" type="line"/>
      <point x="698" y="1825" type="line"/>
      <point x="200" y="1825" type="line"/>
      <point x="200" y="1991" type="line"/>
    </contour>
  </outline>
</glyph>
<glyph name="PA.4" format="2">
  <advance width="1295"/>
  <anchor x="698" y="0" name="bottom"/>
  <anchor x="366" y="1574" name="middle_right"/>
  <anchor x="366" y="1574" name="pulli"/>
  <anchor x="698" y="1991" name="pulli_top"/>
  <anchor x="366" y="1991" name="top"/>
  <anchor x="200" y="1991" name="top_left"/>
  <outline>
    <contour>
      <point x="366" y="454" type="line" smooth="yes"/>
      <point x="366" y="335"/>
      <point x="447" y="251" type="qcurve" smooth="yes"/>
      <point x="528" y="166"/>
      <point x="642" y="166" type="qcurve" smooth="yes"/>
      <point x="981" y="166" type="line" smooth="yes"/>
      <point x="1095" y="166"/>
      <point x="1176" y="251" type="qcurve" smooth="yes"/>
      <point x="1257" y="335"/>
      <point x="1257" y="454" type="qcurve" smooth="yes"/>
      <point x="1257" y="913" type="line"/>
      <point x="1423" y="913" type="line"/>
      <point x="1423" y="415" type="line" smooth="yes"/>
      <point x="1423" y="244"/>
      <point x="1301" y="122" type="qcurve" smooth="yes"/>
      <point x="1180" y="0"/>
      <point x="1008" y="0" type="qcurve" smooth="yes"/>
      <point x="614" y="0" type="line" smooth="yes"/>
      <point x="444" y="0"/>
      <point x="322" y="122" type="qcurve" smooth="yes"/>
      <point x="200" y="244"/>
      <point x="200" y="415" type="qcurve" smooth="yes"/>
      <point x="200" y="1991" type="line"/>
      <point x="366" y="1991" type="line"/>
    </contour>
  </outline>
</glyph>
<glyph name="PA.8" format="2">
  <advance width="1295"/>
  <anchor x="698" y="0" name="bottom"/>
  <anchor x="366" y="1574" name="middle_right"/>
  <anchor x="366" y="1574" name="pulli"/>
  <anchor x="698" y="1991" name="pulli_top"/>
  <anchor x="366" y="1991" name="top"/>
  <anchor x="200" y="1991" name="top_left"/>
  <outline>
    <contour>
      <point x="366" y="170" type="line"/>
      <point x="642" y="166" type="line"/>
      <point x="753" y="166" type="line"/>
      <point x="1029" y="166" type="line"/>
      <point x="1029" y="913" type="line"/>
      <point x="1195" y="913" type="line"/>
      <point x="1195" y="3" type="line"/>
      <point x="780" y="0" type="line"/>
      <point x="614" y="0" type="line"/>
      <point x="200" y="3" type="line"/>
      <point x="200" y="1991" type="line"/>
      <point x="366" y="1991" type="line"/>
    </contour>
  </outline>
</glyph>
<glyph name="PULLI.inside" format="2">
  <anchor x="381" y="1151" name="_pulli_inside"/>
  <outline>
    <contour>
      <point x="502" y="1151" type="qcurve" smooth="yes"/>
      <point x="502" y="1099"/>
      <point x="466" y="1063" type="qcurve"/>
      <point x="429" y="1028"/>
      <point x="379" y="1028" type="qcurve" smooth="yes"/>
      <point x="328" y="1028"/>
      <point x="291" y="1063" type="qcurve"/>
      <point x="255" y="1099"/>
      <point x="255" y="1151" type="qcurve" smooth="yes"/>
      <point x="255" y="1201"/>
      <point x="291" y="1237" type="qcurve" smooth="yes"/>
      <point x="329" y="1275"/>
      <point x="379" y="1275" type="qcurve" smooth="yes"/>
      <point x="429" y="1275"/>
      <point x="466" y="1237" type="qcurve"/>
      <point x="502" y="1202"/>
    </contour>
  </outline>
  <guideline angle="0" x="0" y="1151"/>
</glyph>
<glyph name="PULLI.left.1" format="2">
  <anchor x="871" y="1152" name="_pulli_left"/>
  <outline>
    <contour>
      <point x="502" y="1151" type="qcurve" smooth="yes"/>
      <point x="502" y="1099"/>
      <point x="466" y="1063" type="qcurve"/>
      <point x="429" y="1028"/>
      <point x="379" y="1028" type="qcurve" smooth="yes"/>
      <point x="328" y="1028"/>
      <point x="291" y="1063" type="qcurve"/>
      <point x="255" y="1099"/>
      <point x="255" y="1151" type="qcurve" smooth="yes"/>
      <point x="255" y="1201"/>
      <point x="291" y="1237" type="qcurve" smooth="yes"/>
      <point x="329" y="1275"/>
      <point x="379" y="1275" type="qcurve" smooth="yes"/>
      <point x="429" y="1275"/>
      <point x="466" y="1237" type="qcurve"/>
      <point x="502" y="1202"/>
    </contour>
  </outline>
</glyph>
<glyph name="PULLI.top" format="2">
  <anchor x="1383" y="1150" name="_pulli_top"/>
  <outline>
    <contour>
      <point x="1502" y="1568" type="qcurve" smooth="yes"/>
      <point x="1502" y="1516"/>
      <point x="1466" y="1480" type="qcurve"/>
      <point x="1429" y="1445"/>
      <point x="1379" y="1445" type="qcurve" smooth="yes"/>
      <point x="1328" y="1445"/>
      <point x="1291" y="1480" type="qcurve"/>
      <point x="1255" y="1516"/>
      <point x="1255" y="1568" type="qcurve" smooth="yes"/>
      <point x="1255" y="1618"/>
      <point x="1291" y="1654" type="qcurve" smooth="yes"/>
      <point x="1329" y="1692"/>
      <point x="1379" y="1692" type="qcurve" smooth="yes"/>
      <point x="1429" y="1692"/>
      <point x="1466" y="1654" type="qcurve"/>
      <point x="1502" y="1619"/>
    </contour>
  </outline>
</glyph>
<glyph name="RA.1" format="2">
  <advance width="924"/>
  <anchor x="393" y="1" name="bottom"/>
  <anchor x="393" y="1574" name="pulli"/>
  <anchor x="324" y="1991" name="pulli_top"/>
  <anchor x="393" y="1991" name="top"/>
  <anchor x="227" y="1991" name="top_left"/>
  <outline>
    <contour>
      <point x="227" y="1991" type="line"/>
      <point x="393" y="1991" type="line"/>
      <point x="393" y="1434" type="line"/>
      <point x="227" y="1434" type="line"/>
    </contour>
    <contour>
      <point x="227" y="1991" type="line"/>
      <point x="393" y="1991" type="line"/>
      <point x="393" y="1434" type="line"/>
      <point x="227" y="1434" type="line"/>
    </contour>
    <contour>
      <point x="229" y="1441" type="line"/>
      <point x="347" y="1558" type="line"/>
      <point x="733" y="1163" type="line"/>
      <point x="616" y="1052" type="line"/>
    </contour>
    <contour>
      <point x="619" y="1284" type="line"/>
      <point x="733" y="1163" type="line"/>
      <point x="345" y="789" type="line"/>
      <point x="229" y="906" type="line"/>
    </contour>
    <contour>
      <point x="229" y="906" type="line"/>
      <point x="349" y="1021" type="line"/>
      <point x="735" y="629" type="line"/>
      <point x="616" y="517" type="line"/>
    </contour>
    <contour>
      <point x="619" y="749" type="line"/>
      <point x="733" y="628" type="line"/>
      <point x="330" y="244" type="line"/>
      <point x="227" y="389" type="line"/>
    </contour>
    <contour>
      <point x="227" y="389" type="line"/>
      <point x="393" y="389" type="line"/>
      <point x="393" y="0" type="line"/>
      <point x="227" y="0" type="line"/>
    </contour>
  </outline>
  <guideline angle="0" x="0" y="1822"/>
  <guideline angle="0" x="0" y="162"/>
</glyph>
<glyph name="RRA.1" format="2">
  <advance width="1627"/>
  <anchor x="1500" y="0" name="bottom"/>
  <anchor x="203" y="1434" name="middle_left"/>
  <anchor x="369" y="1574" name="middle_right"/>
  <anchor x="488" y="1574" name="pulli"/>
  <anchor x="780" y="1991" name="pulli_top"/>
  <anchor x="1112" y="1991" name="top"/>
  <outline>
    <contour>
      <point x="768" y="995" type="line"/>
      <point x="698" y="995" type="line"/>
      <point x="472" y="1028"/>
      <point x="343" y="1144" type="qcurve"/>
      <point x="200" y="1275"/>
      <point x="200" y="1493" type="qcurve" smooth="yes"/>
      <point x="200" y="1718"/>
      <point x="370" y="1856" type="qcurve"/>
      <point x="533" y="1991"/>
      <point x="780" y="1991" type="qcurve" smooth="yes"/>
      <point x="1112" y="1991" type="line"/>
      <point x="1112" y="1825" type="line"/>
      <point x="780" y="1825" type="line" smooth="yes"/>
      <point x="598" y="1825"/>
      <point x="488" y="1745" type="qcurve" smooth="yes"/>
      <point x="366" y="1657"/>
      <point x="366" y="1493" type="qcurve" smooth="yes"/>
      <point x="366" y="1329"/>
      <point x="488" y="1241" type="qcurve" smooth="yes"/>
      <point x="598" y="1161"/>
      <point x="780" y="1161" type="qcurve" smooth="yes"/>
      <point x="1029" y="1161" type="line" smooth="yes"/>
      <point x="1112" y="1161"/>
      <point x="1112" y="1079" type="qcurve" smooth="yes"/>
      <point x="1112" y="997"/>
      <point x="931" y="994" type="qcurve"/>
      <point x="926" y="747" type="line"/>
      <point x="1527" y="0" type="line"/>
      <point x="1361" y="0" type="line"/>
      <point x="852" y="632" type="line"/>
      <point x="448" y="0" type="line"/>
      <point x="284" y="0" type="line"/>
      <point x="760" y="747" type="line"/>
    </contour>
  </outline>
</glyph>
<glyph name="RRA.2" format="2">
  <advance width="1527"/>
  <anchor x="966" y="0" name="bottom"/>
  <anchor x="103" y="1434" name="middle_left"/>
  <anchor x="266" y="1574" name="middle_right"/>
  <anchor x="388" y="1574" name="pulli"/>
  <anchor x="680" y="1991" name="pulli_top"/>
  <anchor x="1012" y="1991" name="top"/>
  <outline>
    <contour>
      <point x="814" y="990" type="line"/>
      <point x="814" y="0" type="line"/>
      <point x="976" y="0" type="line"/>
      <point x="984" y="994" type="line"/>
      <point x="984" y="1106"/>
      <point x="963" y="1161"/>
      <point x="929" y="1161" type="qcurve" smooth="yes"/>
      <point x="680" y="1161" type="line" smooth="yes"/>
      <point x="498" y="1161"/>
      <point x="388" y="1241" type="qcurve" smooth="yes"/>
      <point x="266" y="1329"/>
      <point x="266" y="1493" type="qcurve" smooth="yes"/>
      <point x="266" y="1657"/>
      <point x="388" y="1745" type="qcurve" smooth="yes"/>
      <point x="498" y="1825"/>
      <point x="680" y="1825" type="qcurve" smooth="yes"/>
      <point x="1012" y="1825" type="line"/>
      <point x="1012" y="1991" type="line"/>
      <point x="680" y="1991" type="line" smooth="yes"/>
      <point x="433" y="1991"/>
      <point x="270" y="1856" type="qcurve" smooth="yes"/>
      <point x="100" y="1718"/>
      <point x="100" y="1493" type="qcurve" smooth="yes"/>
      <point x="100" y="1275"/>
      <point x="243" y="1144" type="qcurve" smooth="yes"/>
      <point x="372" y="1028"/>
      <point x="598" y="995" type="qcurve"/>
    </contour>
    <contour>
      <point x="822" y="747" type="line"/>
      <point x="133" y="747" type="line"/>
      <point x="133" y="-6" type="line"/>
      <point x="299" y="-6" type="line"/>
      <point x="299" y="581" type="line"/>
      <point x="822" y="581" type="line"/>
    </contour>
  </outline>
</glyph>
<glyph name="RRA.3" format="2">
  <advance width="1527"/>
  <anchor x="966" y="0" name="bottom"/>
  <anchor x="103" y="1434" name="middle_left"/>
  <anchor x="266" y="1574" name="middle_right"/>
  <anchor x="401" y="1574" name="pulli"/>
  <anchor x="680" y="1991" name="pulli_top"/>
  <anchor x="1012" y="1991" name="top"/>
  <outline>
    <contour>
      <point x="814" y="990" type="line"/>
      <point x="814" y="0" type="line"/>
      <point x="976" y="0" type="line"/>
      <point x="984" y="994" type="line"/>
      <point x="992" y="1161"/>
      <point x="956" y="1161" type="qcurve" smooth="yes"/>
      <point x="680" y="1161" type="line" smooth="yes"/>
      <point x="498" y="1161"/>
      <point x="388" y="1241" type="qcurve" smooth="yes"/>
      <point x="266" y="1329"/>
      <point x="266" y="1493" type="qcurve" smooth="yes"/>
      <point x="266" y="1657"/>
      <point x="388" y="1745" type="qcurve" smooth="yes"/>
      <point x="498" y="1825"/>
      <point x="680" y="1825" type="qcurve" smooth="yes"/>
      <point x="1012" y="1825" type="line"/>
      <point x="1012" y="1991" type="line"/>
      <point x="680" y="1991" type="line" smooth="yes"/>
      <point x="433" y="1991"/>
      <point x="270" y="1856" type="qcurve" smooth="yes"/>
      <point x="100" y="1718"/>
      <point x="100" y="1493" type="qcurve" smooth="yes"/>
      <point x="100" y="1275"/>
      <point x="243" y="1144" type="qcurve" smooth="yes"/>
      <point x="372" y="1028"/>
      <point x="598" y="995" type="qcurve"/>
    </contour>
    <contour>
      <point x="822" y="747" type="line"/>
      <point x="309" y="751"/>
      <point x="133" y="652"/>
      <point x="133" y="-6" type="curve"/>
      <point x="299" y="-6" type="line"/>
      <point x="299" y="338"/>
      <point x="279" y="581"/>
      <point x="822" y="581" type="curve"/>
    </contour>
  </outline>
  <guideline angle="90" x="133" y="0"/>
  <guideline angle="0" x="0" y="751"/>
  <guideline angle="0" x="0" y="581"/>
</glyph>
<glyph name="RRA.4" format="2">
  <advance width="1627"/>
  <anchor x="1500" y="0" name="bottom"/>
  <anchor x="206" y="1574" name="middle_left"/>
  <anchor x="374" y="1574" name="middle_right"/>
  <anchor x="498" y="1574" name="pulli"/>
  <anchor x="374" y="1574" name="pulli.left"/>
  <anchor x="780" y="1991" name="pulli_top"/>
  <anchor x="1112" y="1991" name="top"/>
  <outline>
    <contour>
      <point x="919" y="995" type="curve"/>
      <point x="873" y="995"/>
      <point x="827" y="993"/>
      <point x="781" y="993" type="curve" smooth="yes"/>
      <point x="733" y="993"/>
      <point x="685" y="995"/>
      <point x="638" y="1006" type="curve" smooth="yes"/>
      <point x="378" y="1064"/>
      <point x="200" y="1211"/>
      <point x="200" y="1493" type="curve" smooth="yes"/>
      <point x="200" y="1817"/>
      <point x="482" y="1991"/>
      <point x="780" y="1991" type="curve" smooth="yes"/>
      <point x="1112" y="1991" type="line"/>
      <point x="1112" y="1825" type="line"/>
      <point x="780" y="1825" type="line" smooth="yes"/>
      <point x="568" y="1825"/>
      <point x="366" y="1733"/>
      <point x="366" y="1493" type="curve" smooth="yes"/>
      <point x="366" y="1253"/>
      <point x="568" y="1161"/>
      <point x="780" y="1161" type="curve" smooth="yes"/>
      <point x="1029" y="1161" type="line" smooth="yes"/>
      <point x="1076" y="1161"/>
      <point x="1112" y="1126"/>
      <point x="1112" y="1079" type="curve" smooth="yes"/>
      <point x="1112" y="1045"/>
      <point x="1102" y="1022"/>
      <point x="1084" y="994" type="curve" smooth="yes"/>
      <point x="926" y="747" type="line"/>
      <point x="1527" y="0" type="line"/>
      <point x="1361" y="0" type="line"/>
      <point x="852" y="632" type="line"/>
      <point x="448" y="0" type="line"/>
      <point x="284" y="0" type="line"/>
      <point x="495" y="332"/>
      <point x="706" y="664"/>
    </contour>
  </outline>
</glyph>
<glyph name="RRA.5" format="2">
  <advance width="1527"/>
  <anchor x="1912" y="293" name="bottom"/>
  <anchor x="103" y="1434" name="middle_left"/>
  <anchor x="266" y="1574" name="middle_right"/>
  <anchor x="401" y="1574" name="pulli"/>
  <anchor x="680" y="1991" name="pulli_top"/>
  <anchor x="1012" y="1991" name="top"/>
  <outline>
    <contour>
      <point x="953" y="751" type="line"/>
      <point x="1261" y="0" type="line"/>
      <point x="1423" y="0" type="line"/>
      <point x="1123" y="755" type="line"/>
      <point x="1112" y="922"/>
      <point x="871" y="922" type="qcurve" smooth="yes"/>
      <point x="680" y="922" type="line" smooth="yes"/>
      <point x="498" y="922"/>
      <point x="388" y="1002" type="qcurve" smooth="yes"/>
      <point x="266" y="1090"/>
      <point x="266" y="1493" type="qcurve" smooth="yes"/>
      <point x="266" y="1657"/>
      <point x="388" y="1745" type="qcurve" smooth="yes"/>
      <point x="498" y="1825"/>
      <point x="680" y="1825" type="qcurve" smooth="yes"/>
      <point x="1012" y="1825" type="line"/>
      <point x="1012" y="1991" type="line"/>
      <point x="680" y="1991" type="line" smooth="yes"/>
      <point x="434" y="1991"/>
      <point x="270" y="1856" type="qcurve" smooth="yes"/>
      <point x="100" y="1718"/>
      <point x="100" y="1493" type="qcurve" smooth="yes"/>
      <point x="99" y="1035"/>
      <point x="243" y="905" type="qcurve" smooth="yes"/>
      <point x="371" y="788"/>
      <point x="598" y="756" type="qcurve"/>
    </contour>
    <contour>
      <point x="592" y="3" type="line"/>
      <point x="592" y="868" type="line"/>
      <point x="426" y="868" type="line"/>
      <point x="426" y="3" type="line"/>
    </contour>
  </outline>
  <guideline angle="90" x="133" y="0"/>
  <guideline angle="0" x="0" y="751"/>
  <guideline angle="0" x="0" y="581"/>
</glyph>
<glyph name="SA.1" format="2">
  <advance width="1959"/>
  <anchor x="1351" y="0" name="bottom"/>
  <anchor x="1029" y="1574" name="middle_right"/>
  <anchor x="1029" y="1574" name="pulli"/>
  <anchor x="954" y="1991" name="pulli_top"/>
  <anchor x="1029" y="1991" name="top"/>
  <anchor x="864" y="1991" name="top_left"/>
  <outline>
    <contour>
      <point x="1029" y="454" type="line" smooth="yes"/>
      <point x="1029" y="335"/>
      <point x="1111" y="251" type="qcurve" smooth="yes"/>
      <point x="1192" y="166"/>
      <point x="1306" y="166" type="qcurve" smooth="yes"/>
      <point x="1417" y="166" type="line" smooth="yes"/>
      <point x="1531" y="166"/>
      <point x="1612" y="251" type="qcurve" smooth="yes"/>
      <point x="1693" y="335"/>
      <point x="1693" y="454" type="qcurve" smooth="yes"/>
      <point x="1693" y="913" type="line"/>
      <point x="1859" y="913" type="line"/>
      <point x="1859" y="415" type="line" smooth="yes"/>
      <point x="1859" y="244"/>
      <point x="1737" y="122" type="qcurve" smooth="yes"/>
      <point x="1615" y="0"/>
      <point x="1444" y="0" type="qcurve" smooth="yes"/>
      <point x="1278" y="0" type="line" smooth="yes"/>
      <point x="1107" y="0"/>
      <point x="985" y="122" type="qcurve" smooth="yes"/>
      <point x="870" y="244"/>
      <point x="864" y="415" type="qcurve" smooth="yes"/>
      <point x="853" y="753" type="line"/>
      <point x="483" y="753"/>
      <point x="359" y="730"/>
      <point x="359" y="0" type="curve"/>
      <point x="193" y="0" type="line"/>
      <point x="193" y="565"/>
      <point x="219" y="931"/>
      <point x="853" y="913" type="curve"/>
      <point x="864" y="1991" type="line"/>
      <point x="1029" y="1991" type="line"/>
    </contour>
  </outline>
  <guideline angle="90" x="193" y="0"/>
  <guideline angle="0" x="0" y="913"/>
  <guideline angle="90" x="359" y="0"/>
  <guideline angle="0" x="0" y="753"/>
</glyph>
<glyph name="SHA.1" format="2">
  <advance width="1693"/>
  <anchor x="846" y="0" name="bottom"/>
  <anchor x="1510" y="1576" name="pulli"/>
  <anchor x="770" y="1991" name="pulli_top"/>
  <anchor x="1513" y="1661" name="top"/>
  <anchor x="17" y="1189" name="top_left"/>
  <outline>
    <contour>
      <point x="183" y="1024" type="line"/>
      <point x="17" y="1024" type="line"/>
      <point x="17" y="1576" type="line" smooth="yes"/>
      <point x="17" y="1747"/>
      <point x="139" y="1869" type="qcurve" smooth="yes"/>
      <point x="261" y="1991"/>
      <point x="432" y="1991" type="qcurve" smooth="yes"/>
      <point x="639" y="1991"/>
      <point x="770" y="1991" type="qcurve"/>
      <point x="888" y="1991"/>
      <point x="1096" y="1991" type="qcurve" smooth="yes"/>
      <point x="1267" y="1991"/>
      <point x="1388" y="1869" type="qcurve" smooth="yes"/>
      <point x="1510" y="1747"/>
      <point x="1510" y="1576" type="qcurve" smooth="yes"/>
      <point x="1510" y="1024" type="line"/>
      <point x="1344" y="1024" type="line"/>
      <point x="1344" y="1576" type="line" smooth="yes"/>
      <point x="1344" y="1679"/>
      <point x="1271" y="1752" type="qcurve" smooth="yes"/>
      <point x="1198" y="1825"/>
      <point x="1096" y="1825" type="qcurve" smooth="yes"/>
      <point x="992" y="1825"/>
      <point x="846" y="1825" type="qcurve"/>
      <point x="846" y="1680"/>
      <point x="846" y="1576" type="qcurve" smooth="yes"/>
      <point x="846" y="0" type="line"/>
      <point x="681" y="0" type="line"/>
      <point x="681" y="1576" type="line" smooth="yes"/>
      <point x="681" y="1680"/>
      <point x="681" y="1825" type="qcurve"/>
      <point x="535" y="1825"/>
      <point x="432" y="1825" type="qcurve" smooth="yes"/>
      <point x="329" y="1825"/>
      <point x="256" y="1752" type="qcurve" smooth="yes"/>
      <point x="183" y="1679"/>
      <point x="183" y="1576" type="qcurve" smooth="yes"/>
    </contour>
  </outline>
</glyph>
<glyph name="SHA.2" format="2">
  <advance width="1693"/>
  <anchor x="928" y="0" name="bottom"/>
  <anchor x="1504" y="1574" name="pulli"/>
  <anchor x="840" y="1991" name="pulli_top"/>
  <anchor x="1456" y="1661" name="top"/>
  <anchor x="100" y="1189" name="top_left"/>
  <outline>
    <contour>
      <point x="1427" y="1025" type="line"/>
      <point x="1427" y="1825"/>
      <point x="929" y="1825" type="qcurve"/>
      <point x="929" y="1680"/>
      <point x="929" y="1576" type="qcurve" smooth="yes"/>
      <point x="929" y="0" type="line"/>
      <point x="764" y="0" type="line"/>
      <point x="764" y="1576" type="line" smooth="yes"/>
      <point x="764" y="1680"/>
      <point x="764" y="1825" type="qcurve"/>
      <point x="266" y="1825"/>
      <point x="266" y="1025" type="qcurve"/>
      <point x="100" y="1025" type="line"/>
      <point x="100" y="1991"/>
      <point x="840" y="1991" type="qcurve"/>
      <point x="1593" y="1991"/>
      <point x="1593" y="1025" type="qcurve"/>
    </contour>
    <contour>
      <point x="1427" y="1025" type="line"/>
      <point x="1427" y="1825"/>
      <point x="929" y="1825" type="qcurve"/>
      <point x="929" y="1680"/>
      <point x="929" y="1576" type="qcurve" smooth="yes"/>
      <point x="929" y="0" type="line"/>
      <point x="764" y="0" type="line"/>
      <point x="764" y="1576" type="line" smooth="yes"/>
      <point x="764" y="1680"/>
      <point x="764" y="1825" type="qcurve"/>
      <point x="266" y="1825"/>
      <point x="266" y="1025" type="qcurve"/>
      <point x="100" y="1025" type="line"/>
      <point x="100" y="1991"/>
      <point x="840" y="1991" type="qcurve" smooth="yes"/>
      <point x="1593" y="1991"/>
      <point x="1593" y="1025" type="qcurve"/>
    </contour>
    <contour>
      <point x="1427" y="1025" type="line"/>
      <point x="1427" y="1825"/>
      <point x="929" y="1825" type="qcurve"/>
      <point x="929" y="1680"/>
      <point x="929" y="1576" type="qcurve" smooth="yes"/>
      <point x="929" y="0" type="line"/>
      <point x="764" y="0" type="line"/>
      <point x="764" y="1576" type="line" smooth="yes"/>
      <point x="764" y="1680"/>
      <point x="764" y="1825" type="qcurve"/>
      <point x="266" y="1825"/>
      <point x="266" y="1025" type="qcurve"/>
      <point x="100" y="1025" type="line"/>
      <point x="100" y="1991"/>
      <point x="840" y="1991" type="qcurve" smooth="yes"/>
      <point x="1593" y="1991"/>
      <point x="1593" y="1025" type="qcurve"/>
    </contour>
  </outline>
  <guideline angle="0" x="0" y="1825"/>
  <guideline angle="90" x="100" y="0"/>
  <guideline angle="90" x="266" y="0"/>
  <guideline angle="90" x="1427" y="0"/>
  <guideline angle="90" x="1593" y="0"/>
</glyph>
<glyph name="SSA.1" format="2">
  <advance width="1295"/>
  <anchor x="704" y="0" name="bottom"/>
  <anchor x="366" y="1574" name="middle_right"/>
  <anchor x="366" y="1574" name="pulli"/>
  <anchor x="282" y="1991" name="pulli_top"/>
  <anchor x="366" y="1991" name="top"/>
  <anchor x="200" y="1991" name="top_left"/>
  <outline>
    <contour>
      <point x="366" y="454" type="line" smooth="yes"/>
      <point x="366" y="335"/>
      <point x="447" y="251" type="qcurve" smooth="yes"/>
      <point x="528" y="166"/>
      <point x="642" y="166" type="qcurve" smooth="yes"/>
      <point x="753" y="166" type="line" smooth="yes"/>
      <point x="867" y="166"/>
      <point x="948" y="251" type="qcurve" smooth="yes"/>
      <point x="1029" y="335"/>
      <point x="1029" y="454" type="qcurve" smooth="yes"/>
      <point x="1029" y="1433" type="line"/>
      <point x="1195" y="1433" type="line"/>
      <point x="1195" y="415" type="line" smooth="yes"/>
      <point x="1195" y="244"/>
      <point x="1073" y="122" type="qcurve" smooth="yes"/>
      <point x="952" y="0"/>
      <point x="780" y="0" type="qcurve" smooth="yes"/>
      <point x="614" y="0" type="line" smooth="yes"/>
      <point x="444" y="0"/>
      <point x="322" y="122" type="qcurve" smooth="yes"/>
      <point x="200" y="244"/>
      <point x="200" y="415" type="qcurve" smooth="yes"/>
      <point x="200" y="1991" type="line"/>
      <point x="366" y="1991" type="line"/>
      <point x="366" y="1161" type="line"/>
      <point x="864" y="1161" type="line"/>
      <point x="864" y="995" type="line"/>
      <point x="366" y="995" type="line"/>
    </contour>
  </outline>
</glyph>
<glyph name="TA.1" format="2">
  <advance width="1693"/>
  <anchor x="1593" y="0" name="bottom"/>
  <anchor x="973" y="1574" name="middle_right"/>
  <anchor x="973" y="1574" name="pulli"/>
  <anchor x="1075" y="1991" name="pulli_top"/>
  <anchor x="1098" y="1991" name="top"/>
  <anchor x="1002" y="1991" name="top_left"/>
  <outline>
    <contour>
      <point x="1002" y="1991" type="line"/>
      <point x="100" y="0" type="line"/>
      <point x="266" y="0" type="line"/>
      <point x="1160" y="1991" type="line"/>
    </contour>
    <contour>
      <point x="672" y="1212" type="line"/>
      <point x="764" y="1035" type="line"/>
      <point x="1427" y="0" type="line"/>
      <point x="1593" y="0" type="line"/>
      <point x="829" y="1254" type="line"/>
    </contour>
  </outline>
</glyph>
<glyph name="TA.2" format="2">
  <advance width="1693"/>
  <anchor x="100" y="0" name="bottom"/>
  <anchor x="720" y="1574" name="middle_right"/>
  <anchor x="720" y="1574" name="pulli"/>
  <anchor x="618" y="1991" name="pulli_top"/>
  <anchor x="595" y="1991" name="top"/>
  <anchor x="691" y="1991" name="top_left"/>
  <outline>
    <contour>
      <point x="691" y="1991" type="line"/>
      <point x="533" y="1991" type="line"/>
      <point x="1427" y="0" type="line"/>
      <point x="1593" y="0" type="line"/>
    </contour>
    <contour>
      <point x="1021" y="1212" type="line"/>
      <point x="864" y="1254" type="line"/>
      <point x="100" y="0" type="line"/>
      <point x="266" y="0" type="line"/>
      <point x="929" y="1035" type="line"/>
    </contour>
  </outline>
</glyph>
<glyph name="TA.3" format="2">
  <advance width="1693"/>
  <anchor x="1593" y="0" name="bottom"/>
  <anchor x="929" y="1574" name="middle_right"/>
  <anchor x="929" y="1574" name="pulli"/>
  <anchor x="854" y="1991" name="pulli_top"/>
  <anchor x="1976" y="145" name="right"/>
  <anchor x="929" y="1991" name="top"/>
  <anchor x="764" y="1991" name="top_left"/>
  <outline>
    <contour>
      <point x="764" y="1991" type="line"/>
      <point x="764" y="1035" type="line"/>
      <point x="772" y="896" type="line"/>
      <point x="929" y="938" type="line"/>
      <point x="929" y="1991" type="line"/>
    </contour>
    <contour>
      <point x="846" y="907" type="curve"/>
      <point x="764" y="1079" type="line"/>
      <point x="764" y="1079" type="line"/>
      <point x="266" y="651"/>
      <point x="228" y="587"/>
      <point x="100" y="0" type="curve"/>
      <point x="266" y="0" type="line"/>
      <point x="328" y="387"/>
      <point x="328" y="562"/>
    </contour>
    <contour>
      <point x="826" y="907" type="line"/>
      <point x="1344" y="562"/>
      <point x="1344" y="387"/>
      <point x="1406" y="0" type="curve"/>
      <point x="1572" y="0" type="line"/>
      <point x="1444" y="587"/>
      <point x="1406" y="651"/>
      <point x="908" y="1079" type="curve"/>
      <point x="908" y="1079" type="line"/>
    </contour>
  </outline>
  <guideline angle="90" x="2093" y="0"/>
</glyph>
<glyph name="TA.5" format="2">
  <advance width="1793"/>
  <anchor x="865" y="0" name="bottom"/>
  <anchor x="864" y="1586" name="pulli"/>
  <anchor x="1207" y="1991" name="pulli_top"/>
  <anchor x="864" y="1667" name="top"/>
  <anchor x="698" y="1667" name="top_left"/>
  <outline>
    <contour>
      <point x="698" y="1991" type="line"/>
      <point x="698" y="0" type="line"/>
      <point x="864" y="0" type="line"/>
      <point x="864" y="1991" type="line"/>
    </contour>
    <contour>
      <point x="698" y="747" type="curve"/>
      <point x="697" y="913" type="line"/>
      <point x="-55" y="922"/>
      <point x="31" y="533"/>
      <point x="9" y="0" type="curve"/>
      <point x="175" y="0" type="line"/>
      <point x="175" y="419"/>
      <point x="84" y="761"/>
    </contour>
  </outline>
  <guideline angle="0" x="0" y="1899"/>
</glyph>
<glyph name="TTA.1" format="2">
  <advance width="1527"/>
  <anchor x="1416" y="496" name="bottom"/>
  <anchor x="100" y="998" name="middle_left"/>
  <anchor x="266" y="998" name="middle_right"/>
  <anchor x="606" y="998" name="pulli"/>
  <anchor x="1012" y="1991" name="pulli_top"/>
  <anchor x="1427" y="1991" name="top"/>
  <outline>
    <contour>
      <point x="281" y="1208" type="curve" smooth="yes"/>
      <point x="281" y="1477"/>
      <point x="453" y="1731"/>
      <point x="741" y="1802" type="curve" smooth="yes"/>
      <point x="828" y="1824"/>
      <point x="923" y="1825"/>
      <point x="1012" y="1825" type="curve" smooth="yes"/>
      <point x="1427" y="1825" type="line"/>
      <point x="1427" y="1991" type="line"/>
      <point x="1068" y="1991" type="line" smooth="yes"/>
      <point x="950" y="1991"/>
      <point x="826" y="1989"/>
      <point x="711" y="1962" type="curve" smooth="yes"/>
      <point x="334" y="1875"/>
      <point x="113" y="1559"/>
      <point x="113" y="1208" type="curve" smooth="yes"/>
      <point x="113" y="979"/>
      <point x="262" y="757"/>
      <point x="453" y="630" type="curve" smooth="yes"/>
      <point x="615" y="523"/>
      <point x="825" y="496"/>
      <point x="1015" y="496" type="curve" smooth="yes"/>
      <point x="1416" y="496" type="line"/>
      <point x="1416" y="662" type="line"/>
      <point x="973" y="662" type="line" smooth="yes"/>
      <point x="888" y="662"/>
      <point x="804" y="677"/>
      <point x="722" y="699" type="curve"/>
      <point x="477" y="763"/>
      <point x="281" y="964"/>
    </contour>
  </outline>
</glyph>
<glyph name="VA.1" format="2">
  <advance width="1195"/>
  <anchor x="598" y="0" name="bottom"/>
  <anchor x="680" y="1574" name="middle_right"/>
  <anchor x="680" y="1574" name="pulli"/>
  <anchor x="598" y="1991" name="pulli_top"/>
  <anchor x="680" y="1991" name="top"/>
  <anchor x="514" y="1991" name="top_left"/>
  <outline>
    <contour>
      <point x="679" y="1226" type="line"/>
      <point x="857" y="1195"/>
      <point x="975" y="1057" type="qcurve" smooth="yes"/>
      <point x="1094" y="917"/>
      <point x="1095" y="498" type="qcurve" smooth="yes"/>
      <point x="1095" y="292"/>
      <point x="949" y="147" type="qcurve" smooth="yes"/>
      <point x="802" y="1"/>
      <point x="598" y="0" type="qcurve" smooth="yes"/>
      <point x="393" y="1"/>
      <point x="246" y="147" type="qcurve" smooth="yes"/>
      <point x="100" y="292"/>
      <point x="100" y="498" type="qcurve" smooth="yes"/>
      <point x="99" y="917"/>
      <point x="219" y="1057" type="qcurve" smooth="yes"/>
      <point x="341" y="1201"/>
      <point x="528" y="1228" type="qcurve"/>
    </contour>
    <contour>
      <point x="598" y="166" type="qcurve" smooth="yes"/>
      <point x="734" y="166"/>
      <point x="832" y="264" type="qcurve" smooth="yes"/>
      <point x="929" y="361"/>
      <point x="929" y="498" type="qcurve" smooth="yes"/>
      <point x="928" y="872"/>
      <point x="831" y="969" type="qcurve" smooth="yes"/>
      <point x="733" y="1066"/>
      <point x="597" y="1066" type="qcurve" smooth="yes"/>
      <point x="459" y="1066"/>
      <point x="362" y="969" type="qcurve" smooth="yes"/>
      <point x="265" y="872"/>
      <point x="266" y="498" type="qcurve" smooth="yes"/>
      <point x="266" y="361"/>
      <point x="363" y="264" type="qcurve" smooth="yes"/>
      <point x="461" y="166"/>
    </contour>
    <contour>
      <point x="514" y="1991" type="line"/>
      <point x="680" y="1991" type="line"/>
      <point x="680" y="1226" type="line"/>
      <point x="514" y="1226" type="line"/>
    </contour>
  </outline>
</glyph>
<glyph name="VA.2" format="2">
  <advance width="1295"/>
  <anchor x="567" y="0" name="bottom"/>
  <anchor x="265" y="1574" name="middle_right"/>
  <anchor x="265" y="1574" name="pulli"/>
  <anchor x="191" y="1991" name="pulli_top"/>
  <anchor x="266" y="1991" name="top"/>
  <anchor x="100" y="1991" name="top_left"/>
  <outline>
    <contour>
      <point x="266" y="1991" type="line"/>
      <point x="266" y="1079" type="line"/>
      <point x="597" y="1079" type="line" smooth="yes"/>
      <point x="803" y="1079"/>
      <point x="948" y="932" type="qcurve"/>
      <point x="1095" y="787"/>
      <point x="1095" y="581" type="qcurve" smooth="yes"/>
      <point x="1095" y="498" type="line" smooth="yes"/>
      <point x="1095" y="292"/>
      <point x="948" y="147" type="qcurve"/>
      <point x="803" y="0"/>
      <point x="597" y="0" type="qcurve" smooth="yes"/>
      <point x="264" y="0" type="line" smooth="yes"/>
      <point x="197" y="0"/>
      <point x="148" y="49" type="qcurve" smooth="yes"/>
      <point x="100" y="97"/>
      <point x="100" y="165" type="qcurve" smooth="yes"/>
      <point x="100" y="1991" type="line"/>
    </contour>
    <contour>
      <point x="266" y="898" type="line"/>
      <point x="266" y="290" type="line" smooth="yes"/>
      <point x="266" y="245"/>
      <point x="298" y="212" type="qcurve"/>
      <point x="330" y="181"/>
      <point x="375" y="181" type="qcurve" smooth="yes"/>
      <point x="597" y="181" type="line" smooth="yes"/>
      <point x="734" y="181"/>
      <point x="832" y="278" type="qcurve" smooth="yes"/>
      <point x="929" y="375"/>
      <point x="929" y="512" type="qcurve" smooth="yes"/>
      <point x="929" y="568" type="line" smooth="yes"/>
      <point x="929" y="704"/>
      <point x="832" y="801" type="qcurve" smooth="yes"/>
      <point x="734" y="898"/>
      <point x="597" y="898" type="qcurve" smooth="yes"/>
    </contour>
  </outline>
</glyph>
<glyph name="VA.3" format="2">
  <advance width="1693"/>
  <anchor x="1593" y="0" name="bottom"/>
  <anchor x="929" y="1574" name="middle_right"/>
  <anchor x="929" y="1574" name="pulli"/>
  <anchor x="854" y="1991" name="pulli_top"/>
  <anchor x="1976" y="145" name="right"/>
  <anchor x="929" y="1991" name="top"/>
  <anchor x="764" y="1991" name="top_left"/>
  <outline>
    <contour>
      <point x="847" y="1213" type="line"/>
      <point x="100" y="0" type="line"/>
      <point x="266" y="0" type="line"/>
      <point x="846" y="907" type="line"/>
      <point x="1427" y="0" type="line"/>
      <point x="1593" y="0" type="line"/>
    </contour>
    <contour>
      <point x="764" y="1991" type="line"/>
      <point x="764" y="1064" type="line"/>
      <point x="929" y="1064" type="line"/>
      <point x="929" y="1991" type="line"/>
    </contour>
    <contour>
      <point x="255" y="0" type="line"/>
      <point x="1444" y="0" type="line"/>
      <point x="1444" y="165" type="line"/>
      <point x="255" y="165" type="line"/>
    </contour>
  </outline>
  <guideline angle="90" x="2093" y="0"/>
</glyph>
<glyph name="VA.5" format="2">
  <advance width="1195"/>
  <anchor x="597" y="0" name="bottom"/>
  <anchor x="515" y="1574" name="middle_right"/>
  <anchor x="515" y="1574" name="pulli"/>
  <anchor x="597" y="1991" name="pulli_top"/>
  <anchor x="515" y="1991" name="top"/>
  <anchor x="681" y="1991" name="top_left"/>
  <outline>
    <contour>
      <point x="515" y="989" type="qcurve"/>
      <point x="666" y="991" type="line"/>
      <point x="853" y="964"/>
      <point x="975" y="820" type="qcurve" smooth="yes"/>
      <point x="1095" y="680"/>
      <point x="1095" y="498" type="qcurve" smooth="yes"/>
      <point x="1095" y="292"/>
      <point x="949" y="147" type="qcurve" smooth="yes"/>
      <point x="803" y="0"/>
      <point x="597" y="0" type="qcurve" smooth="yes"/>
      <point x="392" y="0"/>
      <point x="246" y="147" type="qcurve" smooth="yes"/>
      <point x="100" y="292"/>
      <point x="100" y="498" type="qcurve" smooth="yes"/>
      <point x="100" y="536"/>
      <point x="100" y="574" type="qcurve"/>
      <point x="105" y="1991" type="line"/>
      <point x="271" y="1991" type="line"/>
      <point x="271" y="873" type="line"/>
      <point x="374" y="964"/>
    </contour>
    <contour>
      <point x="597" y="166" type="qcurve" smooth="yes"/>
      <point x="735" y="166"/>
      <point x="832" y="264" type="qcurve" smooth="yes"/>
      <point x="929" y="361"/>
      <point x="929" y="498" type="qcurve" smooth="yes"/>
      <point x="929" y="635"/>
      <point x="832" y="732" type="qcurve" smooth="yes"/>
      <point x="735" y="829"/>
      <point x="597" y="829" type="qcurve" smooth="yes"/>
      <point x="461" y="829"/>
      <point x="363" y="732" type="qcurve" smooth="yes"/>
      <point x="271" y="658"/>
      <point x="271" y="338"/>
      <point x="363" y="264" type="qcurve" smooth="yes"/>
      <point x="461" y="166"/>
    </contour>
  </outline>
</glyph>
<glyph name="VA.6" format="2">
  <advance width="1295"/>
  <anchor x="611" y="0" name="bottom"/>
  <anchor x="200" y="0" name="bottom.1"/>
  <anchor x="200" y="1574" name="middle_right"/>
  <anchor x="200" y="1574" name="pulli"/>
  <anchor x="277" y="1991" name="pulli_top"/>
  <anchor x="200" y="1991" name="top"/>
  <anchor x="366" y="1991" name="top_left"/>
  <outline>
    <contour>
      <point x="366" y="1991" type="line"/>
      <point x="366" y="1434" type="line"/>
      <point x="697" y="1434" type="line" smooth="yes"/>
      <point x="903" y="1434"/>
      <point x="1048" y="1287" type="qcurve"/>
      <point x="1195" y="1142"/>
      <point x="1195" y="581" type="qcurve" smooth="yes"/>
      <point x="1195" y="498" type="line" smooth="yes"/>
      <point x="1195" y="292"/>
      <point x="1048" y="147" type="qcurve"/>
      <point x="903" y="0"/>
      <point x="697" y="0" type="qcurve" smooth="yes"/>
      <point x="364" y="0" type="line" smooth="yes"/>
      <point x="297" y="0"/>
      <point x="248" y="49" type="qcurve" smooth="yes"/>
      <point x="200" y="97"/>
      <point x="200" y="165" type="qcurve" smooth="yes"/>
      <point x="200" y="1991" type="line"/>
    </contour>
    <contour>
      <point x="366" y="1253" type="line"/>
      <point x="366" y="290" type="line" smooth="yes"/>
      <point x="366" y="245"/>
      <point x="398" y="212" type="qcurve"/>
      <point x="430" y="181"/>
      <point x="475" y="181" type="qcurve" smooth="yes"/>
      <point x="697" y="181" type="line" smooth="yes"/>
      <point x="834" y="181"/>
      <point x="932" y="278" type="qcurve" smooth="yes"/>
      <point x="1029" y="375"/>
      <point x="1029" y="512" type="qcurve" smooth="yes"/>
      <point x="1029" y="568" type="line" smooth="yes"/>
      <point x="1029" y="1059"/>
      <point x="932" y="1156" type="qcurve" smooth="yes"/>
      <point x="834" y="1253"/>
      <point x="697" y="1253" type="qcurve" smooth="yes"/>
    </contour>
  </outline>
</glyph>
<glyph name="WAA.mid" format="2">
  <anchor x="100" y="1907" name="_middle_right"/>
  <outline>
    <contour>
      <point x="70" y="1990" type="line"/>
      <point x="594" y="1990" type="line"/>
      <point x="594" y="1825" type="line"/>
      <point x="70" y="1825" type="line"/>
    </contour>
  </outline>
</glyph>
<glyph name="WAA.mid.mid.alt" format="2">
  <anchor x="100" y="1990" name="_mid_mid"/>
  <outline>
    <contour>
      <point x="90" y="1990" type="line"/>
      <point x="594" y="1990" type="line"/>
      <point x="594" y="1825" type="line"/>
      <point x="90" y="1825" type="line"/>
    </contour>
  </outline>
</glyph>
<glyph name="WAA.protr.alt" format="2">
  <anchor x="102" y="1945" name="_middle_right.1"/>
  <anchor x="102" y="1945" name="_pulli"/>
  <outline>
    <contour>
      <point x="90" y="1990" type="line"/>
      <point x="594" y="1990" type="line"/>
      <point x="594" y="1825" type="line"/>
      <point x="90" y="1825" type="line"/>
    </contour>
  </outline>
</glyph>
<glyph name="WAI.mid" format="2">
  <anchor x="591" y="1742" name="_middle_left"/>
  <outline>
    <contour>
      <point x="620" y="1990" type="line"/>
      <point x="100" y="1990" type="line"/>
      <point x="100" y="1825" type="line"/>
      <point x="620" y="1825" type="line"/>
    </contour>
    <contour>
      <point x="611" y="1659" type="line"/>
      <point x="100" y="1659" type="line"/>
      <point x="100" y="1493" type="line"/>
      <point x="611" y="1493" type="line"/>
    </contour>
  </outline>
</glyph>
<glyph name="WAI.protr.alt" format="2">
  <anchor x="759" y="1784" name="_pulli"/>
  <outline>
    <contour>
      <point x="601" y="1990" type="line"/>
      <point x="100" y="1990" type="line"/>
      <point x="100" y="1825" type="line"/>
      <point x="601" y="1825" type="line"/>
    </contour>
    <contour>
      <point x="601" y="1659" type="line"/>
      <point x="100" y="1659" type="line"/>
      <point x="100" y="1493" type="line"/>
      <point x="601" y="1493" type="line"/>
    </contour>
  </outline>
</glyph>
<glyph name="WAU.protr.alt" format="2">
  <anchor x="760" y="1825" name="_pulli"/>
  <outline>
    <contour>
      <point x="604" y="1490" type="line"/>
      <point x="100" y="1490" type="line"/>
      <point x="100" y="1656" type="line"/>
      <point x="604" y="1656" type="line"/>
    </contour>
    <contour>
      <point x="750" y="1825" type="line"/>
      <point x="1251" y="1825" type="line"/>
      <point x="1251" y="1659" type="line"/>
      <point x="750" y="1659" type="line"/>
    </contour>
    <contour>
      <point x="604" y="1825" type="line"/>
      <point x="100" y="1825" type="line"/>
      <point x="100" y="1990" type="line"/>
      <point x="604" y="1990" type="line"/>
    </contour>
  </outline>
</glyph>
<glyph name="WE.protr.alt" format="2">
  <anchor x="1094" y="1911" name="_pulli"/>
  <outline>
    <contour>
      <point x="938" y="1990" type="line"/>
      <point x="431" y="1990" type="line"/>
      <point x="431" y="1825" type="line"/>
      <point x="938" y="1825" type="line"/>
    </contour>
    <contour>
      <point x="214" y="1823" type="qcurve" smooth="yes"/>
      <point x="177" y="1787"/>
      <point x="127" y="1787" type="qcurve" smooth="yes"/>
      <point x="76" y="1787"/>
      <point x="39" y="1823" type="qcurve" smooth="yes"/>
      <point x="3" y="1859"/>
      <point x="3" y="1910" type="qcurve" smooth="yes"/>
      <point x="3" y="1962"/>
      <point x="39" y="1998" type="qcurve" smooth="yes"/>
      <point x="76" y="2034"/>
      <point x="127" y="2034" type="qcurve" smooth="yes"/>
      <point x="177" y="2034"/>
      <point x="214" y="1998" type="qcurve" smooth="yes"/>
      <point x="250" y="1962"/>
      <point x="250" y="1910" type="qcurve" smooth="yes"/>
      <point x="250" y="1859"/>
    </contour>
  </outline>
</glyph>
<glyph name="WE.pulli.top.alt" format="2">
  <anchor x="928" y="1990" name="_top_left"/>
  <outline>
    <contour>
      <point x="938" y="1990" type="line"/>
      <point x="431" y="1990" type="line"/>
      <point x="431" y="1825" type="line"/>
      <point x="938" y="1825" type="line"/>
    </contour>
    <contour>
      <point x="753" y="2160" type="qcurve" smooth="yes"/>
      <point x="716" y="2124"/>
      <point x="666" y="2124" type="qcurve" smooth="yes"/>
      <point x="615" y="2124"/>
      <point x="578" y="2160" type="qcurve" smooth="yes"/>
      <point x="542" y="2196"/>
      <point x="542" y="2247" type="qcurve" smooth="yes"/>
      <point x="542" y="2299"/>
      <point x="578" y="2335" type="qcurve" smooth="yes"/>
      <point x="615" y="2371"/>
      <point x="666" y="2371" type="qcurve" smooth="yes"/>
      <point x="716" y="2371"/>
      <point x="753" y="2335" type="qcurve" smooth="yes"/>
      <point x="789" y="2299"/>
      <point x="789" y="2247" type="qcurve" smooth="yes"/>
      <point x="789" y="2196"/>
    </contour>
  </outline>
</glyph>
<glyph name="WE.pulli.top.protr.alt" format="2">
  <anchor x="1094" y="1825" name="_pulli"/>
  <outline>
    <contour>
      <point x="938" y="1990" type="line"/>
      <point x="431" y="1990" type="line"/>
      <point x="431" y="1825" type="line"/>
      <point x="938" y="1825" type="line"/>
    </contour>
    <contour>
      <point x="753" y="2143" type="qcurve" smooth="yes"/>
      <point x="716" y="2107"/>
      <point x="666" y="2107" type="qcurve" smooth="yes"/>
      <point x="615" y="2107"/>
      <point x="578" y="2143" type="qcurve" smooth="yes"/>
      <point x="542" y="2179"/>
      <point x="542" y="2230" type="qcurve" smooth="yes"/>
      <point x="542" y="2282"/>
      <point x="578" y="2318" type="qcurve" smooth="yes"/>
      <point x="615" y="2354"/>
      <point x="666" y="2354" type="qcurve" smooth="yes"/>
      <point x="716" y="2354"/>
      <point x="753" y="2318" type="qcurve" smooth="yes"/>
      <point x="789" y="2282"/>
      <point x="789" y="2230" type="qcurve" smooth="yes"/>
      <point x="789" y="2179"/>
    </contour>
  </outline>
</glyph>
<glyph name="WEE.mid" format="2">
  <anchor x="591" y="1904" name="_middle_left"/>
  <outline>
    <contour>
      <point x="601" y="1990" type="line"/>
      <point x="100" y="1990" type="line"/>
      <point x="100" y="1825" type="line"/>
      <point x="601" y="1825" type="line"/>
    </contour>
  </outline>
</glyph>
<glyph name="WEE.protr.alt" format="2">
  <anchor x="1094" y="1825" name="_pulli"/>
  <outline>
    <contour>
      <point x="938" y="1990" type="line"/>
      <point x="431" y="1990" type="line"/>
      <point x="431" y="1825" type="line"/>
      <point x="938" y="1825" type="line"/>
    </contour>
  </outline>
</glyph>
<glyph name="WI.mid.mid.alt" format="2">
  <anchor x="100" y="1720" name="_mid_mid"/>
  <outline>
    <contour>
      <point x="90" y="1720" type="line"/>
      <point x="386" y="1720" type="line"/>
      <point x="386" y="2225" type="line"/>
      <point x="530" y="2225" type="line"/>
      <point x="530" y="1558" type="line"/>
      <point x="90" y="1558" type="line"/>
    </contour>
  </outline>
</glyph>
<glyph name="WI.protr.alt" format="2">
  <anchor x="107" y="1637" name="_pulli"/>
  <outline>
    <contour>
      <point x="90" y="1720" type="line"/>
      <point x="386" y="1720" type="line"/>
      <point x="386" y="2076" type="line"/>
      <point x="530" y="2076" type="line"/>
      <point x="530" y="1558" type="line"/>
      <point x="90" y="1558" type="line"/>
    </contour>
  </outline>
</glyph>
<glyph name="WI.stub" format="2">
  <anchor x="485" y="-494" name="_top"/>
  <outline>
    <contour>
      <point x="485" y="-504" type="line"/>
      <point x="319" y="-504" type="line"/>
      <point x="319" y="0" type="line"/>
      <point x="485" y="0" type="line"/>
    </contour>
  </outline>
</glyph>
<glyph name="WI.stub.mid" format="2">
  <anchor x="402" y="-504" name="_top"/>
  <outline>
    <contour>
      <point x="485" y="-541" type="line"/>
      <point x="319" y="-541" type="line"/>
      <point x="319" y="0" type="line"/>
      <point x="485" y="0" type="line"/>
    </contour>
  </outline>
</glyph>
<glyph name="WI.stub.protr.alt" format="2">
  <anchor x="319" y="-494" name="_pulli_top"/>
  <outline>
    <contour>
      <point x="485" y="-504" type="line"/>
      <point x="319" y="-504" type="line"/>
      <point x="319" y="0" type="line"/>
      <point x="485" y="0" type="line"/>
    </contour>
  </outline>
</glyph>
<glyph name="WII.mid.mid.allt" format="2">
  <anchor x="100" y="1720" name="_mid_mid"/>
  <outline>
    <contour>
      <point x="90" y="1720" type="line"/>
      <point x="243" y="1720" type="line"/>
      <point x="243" y="2218" type="line"/>
      <point x="386" y="2218" type="line"/>
      <point x="386" y="1720" type="line"/>
      <point x="530" y="1720" type="line"/>
      <point x="530" y="2218" type="line"/>
      <point x="673" y="2218" type="line"/>
      <point x="673" y="1556" type="line"/>
      <point x="90" y="1556" type="line"/>
    </contour>
  </outline>
</glyph>
<glyph name="WII.protr.alt" format="2">
  <anchor x="107" y="1637" name="_pulli"/>
  <outline>
    <contour>
      <point x="90" y="1720" type="line"/>
      <point x="243" y="1720" type="line"/>
      <point x="243" y="2076" type="line"/>
      <point x="386" y="2076" type="line"/>
      <point x="386" y="1720" type="line"/>
      <point x="530" y="1720" type="line"/>
      <point x="530" y="2076" type="line"/>
      <point x="673" y="2076" type="line"/>
      <point x="673" y="1556" type="line"/>
      <point x="90" y="1556" type="line"/>
    </contour>
  </outline>
</glyph>
<glyph name="WII.stub.mid" format="2">
  <anchor x="378" y="-491" name="_top"/>
  <outline>
    <contour>
      <point x="295" y="-560" type="line"/>
      <point x="129" y="-560" type="line"/>
      <point x="129" y="3" type="line"/>
      <point x="295" y="0" type="line"/>
    </contour>
    <contour>
      <point x="627" y="-560" type="line"/>
      <point x="461" y="-560" type="line"/>
      <point x="461" y="13" type="line"/>
      <point x="627" y="13" type="line"/>
    </contour>
  </outline>
</glyph>
<glyph name="WII.stub.protr.alt" format="2">
  <anchor x="793" y="-491" name="_top"/>
  <outline>
    <contour>
      <point x="295" y="-521" type="line"/>
      <point x="129" y="-521" type="line"/>
      <point x="129" y="0" type="line"/>
      <point x="295" y="0" type="line"/>
    </contour>
    <contour>
      <point x="627" y="-521" type="line"/>
      <point x="461" y="-521" type="line"/>
      <point x="461" y="0" type="line"/>
      <point x="627" y="0" type="line"/>
    </contour>
  </outline>
</glyph>
<glyph name="WO.inv.protr.alt" format="2">
  <anchor x="1095" y="1824" name="_pulli"/>
  <outline>
    <contour>
      <point x="944" y="1990" type="line"/>
      <point x="430" y="1990" type="line"/>
      <point x="430" y="1824" type="line"/>
      <point x="944" y="1824" type="line"/>
    </contour>
    <contour>
      <point x="1078" y="1619" type="line"/>
      <point x="1591" y="1619" type="line"/>
      <point x="1591" y="1784" type="line"/>
      <point x="1078" y="1784" type="line"/>
    </contour>
    <contour>
      <point x="217" y="1819" type="qcurve"/>
      <point x="180" y="1784"/>
      <point x="130" y="1784" type="qcurve" smooth="yes"/>
      <point x="79" y="1784"/>
      <point x="42" y="1819" type="qcurve"/>
      <point x="6" y="1855"/>
      <point x="6" y="1907" type="qcurve" smooth="yes"/>
      <point x="6" y="1958"/>
      <point x="42" y="1993" type="qcurve"/>
      <point x="79" y="2031"/>
      <point x="130" y="2031" type="qcurve" smooth="yes"/>
      <point x="180" y="2031"/>
      <point x="217" y="1993" type="qcurve"/>
      <point x="253" y="1958"/>
      <point x="253" y="1907" type="qcurve" smooth="yes"/>
      <point x="253" y="1855"/>
    </contour>
  </outline>
</glyph>
<glyph name="WO.inv.pulli.top.alt" format="2">
  <anchor x="1095" y="1990" name="_top"/>
  <outline>
    <contour>
      <point x="944" y="1990" type="line"/>
      <point x="430" y="1990" type="line"/>
      <point x="430" y="1824" type="line"/>
      <point x="944" y="1824" type="line"/>
    </contour>
    <contour>
      <point x="1078" y="1490" type="line"/>
      <point x="1591" y="1490" type="line"/>
      <point x="1591" y="1655" type="line"/>
      <point x="1078" y="1655" type="line"/>
    </contour>
    <contour>
      <point x="762" y="2074" type="qcurve" smooth="yes"/>
      <point x="725" y="2039"/>
      <point x="675" y="2039" type="qcurve" smooth="yes"/>
      <point x="624" y="2040"/>
      <point x="587" y="2074" type="qcurve"/>
      <point x="551" y="2110"/>
      <point x="551" y="2162" type="qcurve" smooth="yes"/>
      <point x="551" y="2213"/>
      <point x="587" y="2248" type="qcurve"/>
      <point x="624" y="2286"/>
      <point x="675" y="2286" type="qcurve" smooth="yes"/>
      <point x="725" y="2286"/>
      <point x="762" y="2248" type="qcurve"/>
      <point x="798" y="2213"/>
      <point x="798" y="2162" type="qcurve" smooth="yes"/>
      <point x="798" y="2109"/>
    </contour>
  </outline>
</glyph>
<glyph name="WO.inv.pulli.top.protr.alt" format="2">
  <anchor x="1095" y="1824" name="_pulli"/>
  <outline>
    <contour>
      <point x="944" y="1990" type="line"/>
      <point x="430" y="1990" type="line"/>
      <point x="430" y="1824" type="line"/>
      <point x="944" y="1824" type="line"/>
    </contour>
    <contour>
      <point x="1078" y="1619" type="line"/>
      <point x="1591" y="1619" type="line"/>
      <point x="1591" y="1784" type="line"/>
      <point x="1078" y="1784" type="line"/>
    </contour>
    <contour>
      <point x="745" y="2074" type="qcurve"/>
      <point x="708" y="2039"/>
      <point x="658" y="2039" type="qcurve" smooth="yes"/>
      <point x="607" y="2039"/>
      <point x="570" y="2074" type="qcurve"/>
      <point x="534" y="2110"/>
      <point x="534" y="2162" type="qcurve" smooth="yes"/>
      <point x="534" y="2213"/>
      <point x="570" y="2248" type="qcurve"/>
      <point x="607" y="2286"/>
      <point x="658" y="2286" type="qcurve" smooth="yes"/>
      <point x="708" y="2286"/>
      <point x="745" y="2248" type="qcurve"/>
      <point x="781" y="2213"/>
      <point x="781" y="2162" type="qcurve" smooth="yes"/>
      <point x="781" y="2110"/>
    </contour>
  </outline>
</glyph>
<glyph name="WO.protr.alt" format="2">
  <anchor x="1098" y="1825" name="_pulli"/>
  <outline>
    <contour>
      <point x="944" y="1784" type="line"/>
      <point x="430" y="1784" type="line"/>
      <point x="430" y="1618" type="line"/>
      <point x="944" y="1618" type="line"/>
    </contour>
    <contour>
      <point x="1078" y="1825" type="line"/>
      <point x="1591" y="1825" type="line"/>
      <point x="1591" y="1990" type="line"/>
      <point x="1078" y="1990" type="line"/>
    </contour>
    <contour>
      <point x="217" y="1613" type="qcurve"/>
      <point x="180" y="1578"/>
      <point x="130" y="1578" type="qcurve" smooth="yes"/>
      <point x="79" y="1578"/>
      <point x="42" y="1613" type="qcurve"/>
      <point x="6" y="1649"/>
      <point x="6" y="1701" type="qcurve" smooth="yes"/>
      <point x="6" y="1752"/>
      <point x="42" y="1787" type="qcurve"/>
      <point x="79" y="1825"/>
      <point x="130" y="1825" type="qcurve" smooth="yes"/>
      <point x="180" y="1825"/>
      <point x="217" y="1787" type="qcurve"/>
      <point x="253" y="1752"/>
      <point x="253" y="1701" type="qcurve" smooth="yes"/>
      <point x="253" y="1649"/>
    </contour>
  </outline>
</glyph>
<glyph name="WO.pulli.top.alt" format="2">
  <anchor x="1098" y="1990" name="_top"/>
  <outline>
    <contour>
      <point x="944" y="1659" type="line"/>
      <point x="430" y="1659" type="line"/>
      <point x="430" y="1493" type="line"/>
      <point x="944" y="1493" type="line"/>
    </contour>
    <contour>
      <point x="1078" y="1825" type="line"/>
      <point x="1591" y="1825" type="line"/>
      <point x="1591" y="1990" type="line"/>
      <point x="1078" y="1990" type="line"/>
    </contour>
    <contour>
      <point x="753" y="1809" type="qcurve" smooth="yes"/>
      <point x="716" y="1774"/>
      <point x="666" y="1773" type="qcurve" smooth="yes"/>
      <point x="615" y="1772"/>
      <point x="578" y="1809" type="qcurve" smooth="yes"/>
      <point x="542" y="1845"/>
      <point x="542" y="1896" type="qcurve" smooth="yes"/>
      <point x="542" y="1948"/>
      <point x="578" y="1984" type="qcurve" smooth="yes"/>
      <point x="615" y="2021"/>
      <point x="666" y="2020" type="qcurve" smooth="yes"/>
      <point x="716" y="2019"/>
      <point x="753" y="1984" type="qcurve" smooth="yes"/>
      <point x="789" y="1949"/>
      <point x="789" y="1896" type="qcurve" smooth="yes"/>
      <point x="789" y="1844"/>
    </contour>
  </outline>
</glyph>
<glyph name="WO.pulli.top.protr.alt" format="2">
  <anchor x="1098" y="1824" name="_pulli"/>
  <outline>
    <contour>
      <point x="944" y="1784" type="line"/>
      <point x="430" y="1784" type="line"/>
      <point x="430" y="1618" type="line"/>
      <point x="944" y="1618" type="line"/>
    </contour>
    <contour>
      <point x="1078" y="1825" type="line"/>
      <point x="1591" y="1825" type="line"/>
      <point x="1591" y="1990" type="line"/>
      <point x="1078" y="1990" type="line"/>
    </contour>
    <contour>
      <point x="753" y="1871" type="qcurve" smooth="yes"/>
      <point x="716" y="1835"/>
      <point x="666" y="1835" type="qcurve" smooth="yes"/>
      <point x="615" y="1835"/>
      <point x="578" y="1871" type="qcurve" smooth="yes"/>
      <point x="542" y="1907"/>
      <point x="542" y="1958" type="qcurve" smooth="yes"/>
      <point x="542" y="2010"/>
      <point x="578" y="2046" type="qcurve" smooth="yes"/>
      <point x="615" y="2082"/>
      <point x="666" y="2082" type="qcurve" smooth="yes"/>
      <point x="716" y="2082"/>
      <point x="753" y="2046" type="qcurve" smooth="yes"/>
      <point x="789" y="2010"/>
      <point x="789" y="1958" type="qcurve" smooth="yes"/>
      <point x="789" y="1907"/>
    </contour>
  </outline>
</glyph>
<glyph name="WOO.inv.alt" format="2">
  <anchor x="1095" y="1990" name="_top"/>
  <outline>
    <contour>
      <point x="944" y="1990" type="line"/>
      <point x="430" y="1990" type="line"/>
      <point x="430" y="1824" type="line"/>
      <point x="944" y="1824" type="line"/>
    </contour>
    <contour>
      <point x="1078" y="1490" type="line"/>
      <point x="1591" y="1490" type="line"/>
      <point x="1591" y="1655" type="line"/>
      <point x="1078" y="1655" type="line"/>
    </contour>
  </outline>
</glyph>
<glyph name="WOO.inv.protr.alt" format="2">
  <anchor x="1095" y="1783" name="_pulli"/>
  <outline>
    <contour>
      <point x="944" y="1990" type="line"/>
      <point x="430" y="1990" type="line"/>
      <point x="430" y="1824" type="line"/>
      <point x="944" y="1824" type="line"/>
    </contour>
    <contour>
      <point x="1078" y="1619" type="line"/>
      <point x="1591" y="1619" type="line"/>
      <point x="1591" y="1784" type="line"/>
      <point x="1078" y="1784" type="line"/>
    </contour>
  </outline>
</glyph>
<glyph name="WOO.protr.alt" format="2">
  <anchor x="1098" y="1825" name="_pulli"/>
  <outline>
    <contour>
      <point x="944" y="1784" type="line"/>
      <point x="430" y="1784" type="line"/>
      <point x="430" y="1618" type="line"/>
      <point x="944" y="1618" type="line"/>
    </contour>
    <contour>
      <point x="1078" y="1825" type="line"/>
      <point x="1591" y="1825" type="line"/>
      <point x="1591" y="1990" type="line"/>
      <point x="1078" y="1990" type="line"/>
    </contour>
  </outline>
</glyph>
<glyph name="WU.1.longka" format="2">
  <anchor x="100" y="0" name="_bottom"/>
  <outline>
    <contour>
      <point x="90" y="0" type="line"/>
      <point x="776" y="0" type="line"/>
      <point x="776" y="166" type="line"/>
      <point x="90" y="166" type="line"/>
    </contour>
  </outline>
</glyph>
<glyph name="WU.horiz.long1" format="2">
  <anchor x="100" y="0" name="_bottom"/>
  <outline>
    <contour>
      <point x="-10" y="0" type="line"/>
      <point x="594" y="0" type="line"/>
      <point x="594" y="166" type="line"/>
      <point x="-10" y="166" type="line"/>
    </contour>
  </outline>
</glyph>
<glyph name="WU.horiz.long1.protr.alt" format="2">
  <anchor x="100" y="-166" name="_bottom"/>
  <outline>
    <contour>
      <point x="-130" y="0" type="line"/>
      <point x="594" y="0" type="line"/>
      <point x="594" y="166" type="line"/>
      <point x="-130" y="166" type="line"/>
    </contour>
  </outline>
</glyph>
<glyph name="WU.horiz.long2" format="2">
  <anchor x="100" y="0" name="_bottom"/>
  <outline>
    <contour>
      <point x="-10" y="0" type="line"/>
      <point x="1191" y="0" type="line"/>
      <point x="1191" y="166" type="line"/>
      <point x="-10" y="166" type="line"/>
    </contour>
  </outline>
</glyph>
<glyph name="WU.horiz.long2.protr.alt" format="2">
  <anchor x="100" y="-166" name="_bottom"/>
  <outline>
    <contour>
      <point x="462" y="0" type="line"/>
      <point x="991" y="0" type="line"/>
      <point x="991" y="166" type="line"/>
      <point x="462" y="166" type="line"/>
    </contour>
    <contour>
      <point x="462" y="0" type="line"/>
      <point x="1191" y="0" type="line"/>
      <point x="1191" y="166" type="line"/>
      <point x="462" y="166" type="line"/>
    </contour>
  </outline>
</glyph>
<glyph name="WU.protr.alt" format="2">
  <anchor x="100" y="-249" name="_bottom"/>
  <outline>
    <contour>
      <point x="90" y="0" type="line"/>
      <point x="594" y="0" type="line"/>
      <point x="594" y="166" type="line"/>
      <point x="90" y="166" type="line"/>
    </contour>
  </outline>
</glyph>
<glyph name="WU.vert.corner.1.alt" format="2">
  <anchor x="485" y="0" name="_bottom.1"/>
  <outline>
    <contour>
      <point x="485" y="-494" type="line"/>
      <point x="319" y="-494" type="line"/>
      <point x="319" y="178" type="line"/>
      <point x="485" y="178" type="line"/>
    </contour>
  </outline>
</glyph>
<glyph name="WU.vert.corner.alt" format="2">
  <anchor x="651" y="0" name="_bottom"/>
  <outline>
    <contour>
      <point x="485" y="-494" type="line"/>
      <point x="319" y="-494" type="line"/>
      <point x="319" y="10" type="line"/>
      <point x="485" y="10" type="line"/>
    </contour>
  </outline>
</glyph>
<glyph name="WU.vert.mid" format="2">
  <anchor x="402" y="0" name="_bottom"/>
  <outline>
    <contour>
      <point x="485" y="-494" type="line"/>
      <point x="319" y="-494" type="line"/>
      <point x="319" y="114" type="line"/>
      <point x="485" y="114" type="line"/>
    </contour>
  </outline>
</glyph>
<glyph name="WUU.hor.long.bot.protr.alt" format="2">
  <anchor x="-310" y="-166" name="_bottom"/>
  <outline>
    <contour>
      <point x="266" y="332" type="line"/>
      <point x="790" y="332" type="line"/>
      <point x="790" y="498" type="line"/>
      <point x="266" y="498" type="line"/>
    </contour>
    <contour>
      <point x="54" y="0" type="line"/>
      <point x="790" y="0" type="line"/>
      <point x="790" y="166" type="line"/>
      <point x="54" y="166" type="line"/>
    </contour>
  </outline>
</glyph>
<glyph name="WUU.hor.long.top3.protr.alt" format="2">
  <anchor x="100" y="-166" name="_bottom"/>
  <outline>
    <contour>
      <point x="-417" y="332" type="line"/>
      <point x="591" y="332" type="line"/>
      <point x="591" y="498" type="line"/>
      <point x="-417" y="498" type="line"/>
    </contour>
    <contour>
      <point x="-165" y="0" type="line"/>
      <point x="591" y="0" type="line"/>
      <point x="591" y="166" type="line"/>
      <point x="-165" y="166" type="line"/>
    </contour>
  </outline>
</glyph>
<glyph name="WUU.hor.long.top4" format="2">
  <anchor x="100" y="0" name="_bottom"/>
  <outline>
    <contour>
      <point x="-137" y="332" type="line"/>
      <point x="591" y="332" type="line"/>
      <point x="591" y="498" type="line"/>
      <point x="-137" y="498" type="line"/>
    </contour>
    <contour>
      <point x="0" y="0" type="line"/>
      <point x="591" y="0" type="line"/>
      <point x="591" y="166" type="line"/>
      <point x="0" y="166" type="line"/>
    </contour>
  </outline>
</glyph>
<glyph name="WUU.mid.alt.1" format="2">
  <anchor x="100" y="-166" name="_bottom"/>
  <outline>
    <contour>
      <point x="83" y="252" type="line"/>
      <point x="591" y="252" type="line"/>
      <point x="591" y="418" type="line"/>
      <point x="83" y="418" type="line"/>
    </contour>
    <contour>
      <point x="80" y="0" type="line"/>
      <point x="591" y="0" type="line"/>
      <point x="591" y="166" type="line"/>
      <point x="80" y="166" type="line"/>
    </contour>
  </outline>
</glyph>
<glyph name="WUU.protr.alt" format="2">
  <anchor x="100" y="-249" name="_bottom"/>
  <outline>
    <contour>
      <point x="83" y="332" type="line"/>
      <point x="591" y="332" type="line"/>
      <point x="591" y="498" type="line"/>
      <point x="83" y="498" type="line"/>
    </contour>
    <contour>
      <point x="80" y="0" type="line"/>
      <point x="591" y="0" type="line"/>
      <point x="591" y="166" type="line"/>
      <point x="80" y="166" type="line"/>
    </contour>
  </outline>
</glyph>
<glyph name="WUU.vert.corner" format="2">
  <anchor x="627" y="0" name="_bottom"/>
  <outline>
    <contour>
      <point x="295" y="-488" type="line"/>
      <point x="129" y="-488" type="line"/>
      <point x="129" y="10" type="line"/>
      <point x="295" y="10" type="line"/>
    </contour>
    <contour>
      <point x="627" y="-491" type="line"/>
      <point x="461" y="-491" type="line"/>
      <point x="461" y="10" type="line"/>
      <point x="627" y="10" type="line"/>
    </contour>
  </outline>
</glyph>
<glyph name="WUU.vert.mid" format="2">
  <anchor x="378" y="0" name="_bottom"/>
  <outline>
    <contour>
      <point x="295" y="-488" type="line"/>
      <point x="129" y="-488" type="line"/>
      <point x="129" y="91" type="line"/>
      <point x="295" y="91" type="line"/>
    </contour>
    <contour>
      <point x="627" y="-491" type="line"/>
      <point x="461" y="-491" type="line"/>
      <point x="461" y="91" type="line"/>
      <point x="627" y="91" type="line"/>
    </contour>
  </outline>
</glyph>
<glyph name="YA.3" format="2">
  <advance width="1693"/>
  <anchor x="1108" y="0" name="bottom"/>
  <anchor x="932" y="1745" name="middle_right"/>
  <anchor x="929" y="1574" name="pulli"/>
  <anchor x="854" y="1991" name="pulli_top"/>
  <anchor x="929" y="1991" name="top"/>
  <anchor x="764" y="1991" name="top_left"/>
  <outline>
    <contour>
      <point x="1427" y="1434" type="qcurve"/>
      <point x="1593" y="1434" type="line"/>
      <point x="1593" y="0"/>
      <point x="840" y="0" type="qcurve"/>
      <point x="100" y="0"/>
      <point x="100" y="1434" type="qcurve"/>
      <point x="266" y="1434" type="line"/>
      <point x="266" y="166"/>
      <point x="764" y="166" type="qcurve"/>
      <point x="764" y="311"/>
      <point x="764" y="415" type="qcurve" smooth="yes"/>
      <point x="764" y="1991" type="line"/>
      <point x="929" y="1991" type="line"/>
      <point x="929" y="415" type="line" smooth="yes"/>
      <point x="929" y="311"/>
      <point x="929" y="166" type="qcurve"/>
      <point x="1427" y="166"/>
    </contour>
  </outline>
  <guideline angle="0" x="0" y="166"/>
  <guideline angle="90" x="100" y="0"/>
  <guideline angle="90" x="266" y="0"/>
  <guideline angle="90" x="1427" y="0"/>
  <guideline angle="90" x="1593" y="0"/>
</glyph>
<glyph name="YA.4" format="2">
  <advance width="1693"/>
  <anchor x="1178" y="0" name="bottom"/>
  <anchor x="1178" y="0" name="bottom.1"/>
  <anchor x="846" y="1745" name="middle_right"/>
  <anchor x="846" y="1574" name="pulli"/>
  <anchor x="678" y="1991" name="pulli_top"/>
  <anchor x="846" y="1991" name="top"/>
  <anchor x="679" y="1991" name="top_left"/>
  <outline>
    <contour>
      <point x="183" y="913" type="line"/>
      <point x="183" y="415" type="line" smooth="yes"/>
      <point x="183" y="312"/>
      <point x="256" y="239" type="qcurve" smooth="yes"/>
      <point x="329" y="166"/>
      <point x="432" y="166" type="qcurve" smooth="yes"/>
      <point x="535" y="166"/>
      <point x="681" y="166" type="qcurve"/>
      <point x="681" y="311"/>
      <point x="681" y="415" type="qcurve" smooth="yes"/>
      <point x="681" y="1991" type="line"/>
      <point x="846" y="1991" type="line"/>
      <point x="846" y="415" type="line" smooth="yes"/>
      <point x="846" y="311"/>
      <point x="846" y="166" type="qcurve"/>
      <point x="992" y="166"/>
      <point x="1096" y="166" type="qcurve" smooth="yes"/>
      <point x="1198" y="166"/>
      <point x="1271" y="239" type="qcurve" smooth="yes"/>
      <point x="1344" y="312"/>
      <point x="1344" y="415" type="qcurve" smooth="yes"/>
      <point x="1344" y="913" type="line"/>
      <point x="1510" y="913" type="line"/>
      <point x="1510" y="415" type="line" smooth="yes"/>
      <point x="1510" y="244"/>
      <point x="1388" y="122" type="qcurve" smooth="yes"/>
      <point x="1267" y="0"/>
      <point x="1096" y="0" type="qcurve" smooth="yes"/>
      <point x="888" y="0"/>
      <point x="770" y="0" type="qcurve"/>
      <point x="639" y="0"/>
      <point x="432" y="0" type="qcurve" smooth="yes"/>
      <point x="261" y="0"/>
      <point x="139" y="122" type="qcurve" smooth="yes"/>
      <point x="17" y="244"/>
      <point x="17" y="415" type="qcurve" smooth="yes"/>
      <point x="17" y="913" type="line"/>
    </contour>
  </outline>
</glyph>
<glyph name="YA.5" format="2">
  <advance width="1693"/>
  <anchor x="1178" y="0" name="bottom"/>
  <anchor x="929" y="1574" name="middle_right"/>
  <anchor x="929" y="1574" name="pulli"/>
  <anchor x="854" y="1991" name="pulli_top"/>
  <anchor x="929" y="1991" name="top"/>
  <anchor x="764" y="1991" name="top_left"/>
  <outline>
    <contour>
      <point x="1427" y="1991" type="line"/>
      <point x="1593" y="1991" type="line"/>
      <point x="1593" y="415" type="line" smooth="yes"/>
      <point x="1593" y="244"/>
      <point x="1471" y="122" type="qcurve" smooth="yes"/>
      <point x="1349" y="0"/>
      <point x="1178" y="0" type="qcurve" smooth="yes"/>
      <point x="971" y="0"/>
      <point x="846" y="166" type="qcurve"/>
      <point x="722" y="0"/>
      <point x="514" y="0" type="qcurve" smooth="yes"/>
      <point x="343" y="0"/>
      <point x="222" y="122" type="qcurve" smooth="yes"/>
      <point x="100" y="244"/>
      <point x="100" y="415" type="qcurve" smooth="yes"/>
      <point x="100" y="1991" type="line"/>
      <point x="266" y="1991" type="line"/>
      <point x="266" y="415" type="line" smooth="yes"/>
      <point x="266" y="311"/>
      <point x="339" y="239" type="qcurve" smooth="yes"/>
      <point x="411" y="166"/>
      <point x="514" y="166" type="qcurve" smooth="yes"/>
      <point x="618" y="166"/>
      <point x="690" y="239" type="qcurve"/>
      <point x="764" y="311"/>
      <point x="764" y="415" type="qcurve" smooth="yes"/>
      <point x="764" y="1991" type="line"/>
      <point x="929" y="1991" type="line"/>
      <point x="929" y="415" type="line" smooth="yes"/>
      <point x="929" y="311"/>
      <point x="1002" y="239" type="qcurve" smooth="yes"/>
      <point x="1075" y="166"/>
      <point x="1178" y="166" type="qcurve" smooth="yes"/>
      <point x="1282" y="166"/>
      <point x="1354" y="239" type="qcurve" smooth="yes"/>
      <point x="1427" y="311"/>
      <point x="1427" y="415" type="qcurve" smooth="yes"/>
    </contour>
  </outline>
</glyph>
<glyph name=".notdef" format="2">
  <advance width="1024"/>
  <outline>
    <contour>
      <point x="100" y="0" type="line"/>
      <point x="100" y="1434" type="line"/>
      <point x="924" y="1434" type="line"/>
      <point x="924" y="0" type="line"/>
    </contour>
    <contour>
      <point x="150" y="50" type="line"/>
      <point x="874" y="50" type="line"/>
      <point x="874" y="1384" type="line"/>
      <point x="150" y="1384" type="line"/>
    </contour>
  </outline>
</glyph>
